<svg width="645" height="589" viewBox="0 0 645 589" fill="none" xmlns="http://www.w3.org/2000/svg">
<path d="M318.768 588.646C491.958 588.646 632.356 512.294 632.356 418.11C632.356 323.925 491.958 247.573 318.768 247.573C145.578 247.573 5.17975 323.925 5.17975 418.11C5.17975 512.294 145.578 588.646 318.768 588.646Z" fill="#F5F5F5"/>
<path d="M318.768 409.182C344.863 409.182 366.017 396.965 366.017 381.894C366.017 366.823 344.863 354.606 318.768 354.606C292.673 354.606 271.519 366.823 271.519 381.894C271.519 396.965 292.673 409.182 318.768 409.182Z" fill="#E0E0E0"/>
<path d="M494.975 482.105C536.226 482.105 569.667 462.798 569.667 438.983C569.667 415.167 536.226 395.861 494.975 395.861C453.725 395.861 420.284 415.167 420.284 438.983C420.284 462.798 453.725 482.105 494.975 482.105Z" fill="#E0E0E0"/>
<path d="M128.453 486.765C169.704 486.765 203.145 467.459 203.145 443.643C203.145 419.828 169.704 400.521 128.453 400.521C87.2024 400.521 53.762 419.828 53.762 443.643C53.762 467.459 87.2024 486.765 128.453 486.765Z" fill="#E0E0E0"/>
<path d="M606.528 408.34L592.421 402.571C590.648 390.377 589.626 378.085 589.361 365.766C589.361 342.717 603.721 314.53 621.941 319.247C640.161 323.963 616.803 349.749 613.013 369.668C609.223 389.586 606.528 408.34 606.528 408.34Z" fill="#458FF6"/>
<path opacity="0.3" d="M606.528 408.34L592.421 402.571C590.648 390.377 589.626 378.085 589.361 365.766C589.361 342.717 603.721 314.53 621.941 319.247C640.161 323.963 616.803 349.749 613.013 369.668C609.223 389.586 606.528 408.34 606.528 408.34Z" fill="black"/>
<path d="M599.692 406.557C599.846 406.536 599.986 406.455 600.081 406.331C600.175 406.208 600.217 406.052 600.197 405.897C593.474 355.364 616.2 327.29 616.424 327.051C616.525 326.93 616.573 326.774 616.559 326.617C616.544 326.461 616.468 326.316 616.347 326.216C616.226 326.115 616.07 326.067 615.913 326.081C615.757 326.096 615.612 326.172 615.512 326.293C615.287 326.574 592.224 354.985 599.018 406.052C599.029 406.13 599.054 406.204 599.094 406.272C599.134 406.34 599.186 406.399 599.249 406.446C599.312 406.493 599.383 406.527 599.459 406.546C599.535 406.565 599.615 406.569 599.692 406.557Z" fill="white"/>
<path d="M613.771 411.709L606.402 408.368C604.195 397.014 604.531 385.312 607.384 374.103C612.115 355.939 627.864 344.738 635.795 346.591C645.495 348.851 646.436 357.82 643.6 364.067C640.217 371.464 616.887 391.495 613.771 411.709Z" fill="#458FF6"/>
<path opacity="0.1" d="M613.771 411.709L606.402 408.368C604.195 397.014 604.531 385.312 607.384 374.103C612.115 355.939 627.864 344.738 635.795 346.591C645.495 348.851 646.436 357.82 643.6 364.067C640.217 371.464 616.887 391.495 613.771 411.709Z" fill="black"/>
<path d="M609.939 410.544C610.097 410.526 610.241 410.447 610.341 410.323C610.441 410.2 610.488 410.042 610.473 409.884C607.16 377.823 635.136 353.174 635.43 352.936C635.537 352.821 635.596 352.671 635.596 352.515C635.596 352.358 635.537 352.208 635.43 352.093C635.376 352.037 635.31 351.993 635.238 351.963C635.165 351.932 635.088 351.917 635.009 351.917C634.931 351.917 634.853 351.932 634.781 351.963C634.709 351.993 634.643 352.037 634.588 352.093C634.293 352.346 605.868 377.36 609.223 410.067C609.257 410.224 609.351 410.361 609.484 410.45C609.618 410.539 609.781 410.573 609.939 410.544Z" fill="white"/>
<path d="M46.4488 395.426L56.1343 389.895C56.1343 389.895 60.7666 364.334 57.2994 342.352C52.4145 311.47 31.3729 300.788 23.7368 303.862C16.1006 306.936 14.3038 316.088 28.1023 333.943C36.2438 344.471 46.7155 366.748 46.4488 395.426Z" fill="#458FF6"/>
<g opacity="0.15">
<path opacity="0.15" d="M46.4488 395.426L56.1343 389.895C56.1343 389.895 60.7666 364.334 57.2994 342.352C52.4145 311.47 31.3729 300.788 23.7368 303.862C16.1006 306.936 14.3038 316.088 28.1023 333.943C36.2438 344.471 46.7155 366.748 46.4488 395.426Z" fill="black"/>
</g>
<path d="M49.958 383.157H49.8598C49.7709 383.145 49.6853 383.116 49.608 383.07C49.5307 383.025 49.4633 382.964 49.4097 382.892C49.3561 382.82 49.3174 382.739 49.2959 382.651C49.2743 382.564 49.2704 382.474 49.2843 382.385C53.2708 353.455 41.6481 321.759 28.5655 308.985C28.4843 308.926 28.4168 308.85 28.3674 308.763C28.3181 308.675 28.2882 308.578 28.2797 308.478C28.2711 308.378 28.2842 308.277 28.318 308.182C28.3519 308.088 28.4056 308.001 28.4757 307.929C28.5457 307.857 28.6304 307.801 28.7241 307.764C28.8177 307.728 28.9181 307.712 29.0185 307.718C29.1188 307.723 29.2168 307.75 29.3058 307.797C29.3947 307.844 29.4726 307.909 29.5341 307.989C42.8412 320.931 54.7026 353.216 50.6599 382.554C50.6361 382.722 50.5517 382.877 50.4226 382.988C50.2934 383.099 50.1283 383.159 49.958 383.157Z" fill="white"/>
<path d="M19.6099 410.937C18.0798 411.807 14.9355 409.898 13.7283 409.084C11.6576 407.656 9.98587 405.724 8.87149 403.469C7.627 400.923 7.20512 398.054 7.6643 395.257C7.9073 393.78 8.25441 392.321 8.70304 390.892L9.92427 386.681C10.4054 385.331 10.6153 383.9 10.5419 382.47C10.1769 379.564 7.59411 377.543 5.26396 375.788C2.6671 373.851 -0.0139822 371.296 5.48815e-05 367.801C0.181172 365.093 1.26335 362.523 3.07418 360.502C4.73055 358.382 6.70978 356.515 8.22578 354.283C9.41407 352.717 10.0241 350.788 9.95234 348.823C9.79154 347.627 9.39045 346.476 8.77323 345.44C7.35318 343.281 6.11371 341.009 5.06744 338.646C4.21118 336.203 4.33751 333.171 6.24655 331.417C7.0961 330.782 8.06396 330.323 9.09327 330.068C10.1226 329.812 11.1926 329.765 12.2404 329.929C14.2335 330.164 16.1505 330.835 17.8552 331.894C23.3999 334.968 26.5582 341.538 32.4397 343.91C34.7683 344.635 37.1407 345.212 39.5425 345.636C40.748 345.86 41.8932 346.334 42.9039 347.028C43.9146 347.722 44.7684 348.62 45.41 349.665C47.5717 353.974 43.5711 359.28 45.0871 363.857C46.4908 367.899 50.3651 369.471 52.5689 373.107C53.4723 374.714 53.8364 376.569 53.6076 378.399C53.4117 381.495 52.6555 384.529 51.3758 387.355C49.9358 390.163 48.289 392.861 46.4487 395.426C46.3645 395.524 19.8485 410.768 19.6099 410.937Z" fill="#458FF6"/>
<path d="M35.3173 402.571C35.2251 402.567 35.1346 402.545 35.0508 402.507C34.967 402.468 34.8917 402.413 34.8291 402.345C34.7665 402.278 34.7179 402.198 34.6861 402.111C34.6542 402.025 34.6398 401.933 34.6435 401.841C35.7805 374.468 22.8805 344.289 13.5037 335.445C13.376 335.316 13.3043 335.142 13.3043 334.961C13.3043 334.78 13.376 334.606 13.5037 334.477C13.6349 334.348 13.8113 334.276 13.995 334.276C14.1787 334.276 14.3551 334.348 14.4863 334.477C23.9894 343.39 37.1702 374.131 36.0051 401.911C35.9979 402.088 35.9222 402.256 35.794 402.379C35.6658 402.502 35.495 402.571 35.3173 402.571Z" fill="white"/>
<path d="M31.2185 370.215H31.008C24.5222 368.432 17.8628 367.354 11.1455 367.001C10.9594 367.001 10.7809 366.927 10.6492 366.795C10.5176 366.664 10.4437 366.485 10.4437 366.299C10.4437 366.113 10.5176 365.934 10.6492 365.803C10.7809 365.671 10.9594 365.597 11.1455 365.597C17.9818 365.952 24.7594 367.049 31.3589 368.868C31.4456 368.893 31.5263 368.936 31.5966 368.993C31.6668 369.05 31.725 369.12 31.7681 369.2C31.8111 369.279 31.838 369.367 31.8473 369.456C31.8566 369.546 31.848 369.637 31.8221 369.724C31.7812 369.856 31.7021 369.973 31.5947 370.061C31.4873 370.148 31.3564 370.202 31.2185 370.215Z" fill="white"/>
<path d="M531.893 430.083L518.81 428.581L515.427 402.22L531.416 406.964L531.893 430.083Z" fill="#B16668"/>
<path d="M503.229 451.588C503.04 452.107 502.963 452.661 503.001 453.212C503.04 453.763 503.194 454.3 503.454 454.788C504.858 456.417 508.479 458.326 513.42 458.677C518.151 459.014 522.362 458.382 525.127 456.627C526.329 456.006 527.359 455.096 528.123 453.979C528.888 452.862 529.363 451.572 529.507 450.226C529.773 447.545 529.507 444.948 530.756 442.885C532.005 440.822 533.816 438.814 534.223 437.775C534.709 435.983 534.709 434.093 534.223 432.301L503.229 451.588Z" fill="#263238"/>
<path d="M516.157 428.118C516.115 429.135 515.931 430.142 515.61 431.108C514.886 433.187 513.916 435.171 512.718 437.018C512.13 437.999 511.474 438.937 510.753 439.825C509.349 441.524 507.553 442.927 506.037 444.556C504.428 446.091 503.397 448.133 503.117 450.339C502.92 454.045 508.816 455.308 511.918 455.855C515.264 456.44 518.698 456.267 521.969 455.35C523.686 454.903 525.238 453.97 526.438 452.662C527.638 451.355 528.435 449.73 528.735 447.981C528.917 446.942 528.847 445.889 528.973 444.864C529.382 442.498 530.37 440.27 531.851 438.379C532.711 437.288 533.45 436.107 534.055 434.856C535.023 432.568 534.251 429.985 533.634 427.711C533.1 425.732 532.454 423.5 531.753 423.654C531.753 424.679 531.753 424.819 531.065 425.507C530.377 426.195 530.11 427.711 529.128 428.483C529.441 427.628 529.671 426.744 529.815 425.844C529.876 425.484 529.801 425.114 529.605 424.805C529.279 424.514 528.89 424.302 528.468 424.188C527.008 423.699 525.503 423.356 523.976 423.163C521.891 422.924 519.786 422.924 517.701 423.163C517.267 423.24 516.874 423.469 516.593 423.809C516.34 424.182 516.203 424.621 516.199 425.072C516.129 425.606 516.185 427.136 516.157 428.118Z" fill="#455A64"/>
<path d="M512.213 437.804C513.617 436.765 518.572 436.751 520.256 436.933C521.973 437.08 523.625 437.66 525.057 438.618C525.267 438.767 525.522 438.838 525.779 438.817C526.036 438.797 526.277 438.686 526.461 438.506C526.567 438.4 526.649 438.273 526.702 438.133C526.755 437.993 526.776 437.843 526.766 437.694C526.755 437.544 526.712 437.399 526.64 437.268C526.568 437.137 526.469 437.023 526.348 436.933C524.775 435.772 522.907 435.077 520.958 434.926C518.526 434.748 516.082 434.89 513.687 435.347C513.687 435.347 511.806 436.568 512.213 437.804Z" fill="#F5F5F5"/>
<path d="M509.041 441.65C510.781 440.625 516.059 440.765 517.758 440.948C519.441 441.12 521.049 441.735 522.418 442.731C522.629 442.877 522.884 442.946 523.14 442.926C523.396 442.905 523.637 442.797 523.822 442.618C523.928 442.513 524.01 442.386 524.063 442.246C524.116 442.105 524.137 441.956 524.127 441.806C524.116 441.657 524.073 441.512 524.001 441.381C523.929 441.249 523.83 441.135 523.709 441.046C521.407 439.853 518.894 439.119 516.312 438.884C512.101 438.59 511.076 439.432 511.076 439.432C510.593 439.627 510.159 439.927 509.807 440.31C509.455 440.694 509.193 441.152 509.041 441.65Z" fill="#F5F5F5"/>
<path d="M522.614 430.954C520.24 430.682 517.836 430.83 515.512 431.389C514.782 431.796 514.29 432.961 514.768 433.256C516.888 432.684 519.089 432.465 521.281 432.61C522.837 432.766 524.356 433.184 525.773 433.845C526.138 434.014 526.559 434.224 526.924 434.435C527.041 434.51 527.173 434.558 527.311 434.577C527.449 434.596 527.589 434.585 527.722 434.545C527.855 434.505 527.978 434.437 528.083 434.346C528.187 434.254 528.271 434.141 528.328 434.014C528.427 433.807 528.447 433.57 528.382 433.35C528.317 433.129 528.173 432.941 527.977 432.821C526.343 431.823 524.515 431.186 522.614 430.954Z" fill="#F5F5F5"/>
<path d="M483.114 418.096L470.677 414.628V389.488L486.104 390.162L483.114 418.096Z" fill="#B16668"/>
<path d="M444.4 431.557C444.049 432.641 444.114 433.817 444.582 434.856C445.046 435.81 450.085 438.66 456.879 438.197C461.911 437.836 466.757 436.14 470.916 433.284C473.499 431.571 476.194 431.248 479.563 431.066C482.932 430.883 487.339 429.185 488.083 427.613C488.462 426.205 488.423 424.717 487.971 423.331L444.4 431.557Z" fill="#263238"/>
<path d="M471.772 410.361L471.239 410.249C470.943 410.179 470.636 410.179 470.34 410.249C470.014 410.356 469.723 410.55 469.498 410.81C468.835 411.665 468.257 412.581 467.772 413.548C466.368 415.864 463.35 417.759 460.093 419.541C457.875 420.735 455.7 421.661 453.412 422.686C451.124 423.71 447.965 424.384 446.14 425.619C443.473 427.416 443.122 431.922 446.14 433.705C448.751 435.249 455.658 436.919 462.887 434.87C466.817 433.747 471.197 429.55 476.362 429.143C479.647 428.876 485.865 427.964 487.985 425.465C488.771 424.356 487.718 420.847 486.862 417.815C485.922 414.502 485.037 409.393 483.942 409.631C483.952 409.868 483.904 410.104 483.804 410.319C483.704 410.533 483.554 410.721 483.367 410.867C482.96 411.288 482.412 411.554 481.963 411.933C481.197 412.687 480.578 413.577 480.138 414.558C479.96 414.995 479.631 415.353 479.212 415.569C478.65 415.765 478.243 415.429 477.808 415.204C477.191 414.921 476.493 414.871 475.843 415.064C475.911 414.405 476.028 413.753 476.194 413.112C476.256 412.911 476.256 412.696 476.194 412.495C476.114 412.291 475.965 412.122 475.773 412.018C474.57 411.192 473.207 410.627 471.772 410.361Z" fill="#455A64"/>
<path d="M463.21 417.703C463.444 417.248 463.79 416.861 464.214 416.576C464.639 416.292 465.129 416.119 465.638 416.074C467.126 415.793 469.765 416.902 471.407 418.25C471.564 418.375 471.687 418.537 471.767 418.721C471.846 418.905 471.879 419.106 471.862 419.306C471.845 419.505 471.78 419.698 471.671 419.866C471.562 420.035 471.414 420.174 471.239 420.271C471.018 420.396 470.764 420.448 470.512 420.421C470.26 420.393 470.023 420.287 469.835 420.117C468.023 418.483 465.648 417.618 463.21 417.703Z" fill="#F5F5F5"/>
<path d="M458.563 420.299C458.889 419.839 459.32 419.464 459.821 419.205C460.322 418.946 460.877 418.811 461.441 418.812C463.749 418.913 465.965 419.743 467.772 421.184C467.919 421.307 468.035 421.464 468.109 421.641C468.183 421.819 468.213 422.012 468.197 422.203C468.18 422.395 468.118 422.58 468.014 422.742C467.911 422.904 467.77 423.039 467.603 423.135C467.385 423.266 467.129 423.323 466.875 423.295C466.622 423.267 466.384 423.156 466.199 422.981C465.206 421.993 464.006 421.24 462.685 420.777C461.363 420.313 459.955 420.15 458.563 420.299Z" fill="#F5F5F5"/>
<path d="M453.524 422.63C453.894 422.206 454.352 421.867 454.866 421.637C455.38 421.407 455.937 421.291 456.5 421.296C458.722 421.433 460.844 422.268 462.564 423.682C462.712 423.807 462.827 423.965 462.901 424.144C462.975 424.322 463.005 424.516 462.989 424.709C462.972 424.901 462.91 425.087 462.806 425.25C462.703 425.414 462.562 425.55 462.395 425.648C462.177 425.779 461.921 425.835 461.667 425.807C461.414 425.779 461.176 425.669 460.992 425.493C460.053 424.471 458.89 423.68 457.595 423.183C456.299 422.686 454.905 422.497 453.524 422.63Z" fill="#F5F5F5"/>
<path d="M529.029 254.072C529.886 279.999 529.942 336.147 529.942 336.147C530.209 339.376 530.489 345.103 530.728 356.726C531.079 373.57 531.893 415.162 531.893 415.162C531.893 415.162 523.85 418.938 516.452 415.864C516.452 415.864 506.177 357.385 504.071 340.709C502.233 326.153 498.709 292.015 498.709 292.015L493.852 335.347C493.852 335.347 493.852 346.577 493.193 356.487C492.645 364.207 485.149 403.974 485.149 403.974C480.254 405.275 475.083 405.104 470.284 403.483C470.284 403.483 469.61 342.436 469.47 335.347C469.316 327.29 471.393 240.176 471.393 240.176L529.029 254.072Z" fill="#455A64"/>
<path d="M498.737 292.015L496.885 277.318C490.901 275.788 485.242 273.192 480.18 269.654C480.18 269.654 483.746 274.426 494.217 279.48L496.576 292.815L493.909 335.347L498.737 292.015Z" fill="#37474F"/>
<path d="M470.733 181.318C466.943 186.287 447.446 213.042 447.446 213.042L429.436 199.089C425.225 195.79 423.976 191.467 421.337 188.477C418.698 185.487 415.806 184.771 412.845 182.273C409.883 179.774 408.746 177.879 407.735 180.013C406.724 182.146 409.995 185.866 410.542 186.765C411.09 187.663 414.473 189.811 410.009 189.572C405.545 189.333 396.955 184.238 394.877 183.297C392.8 182.357 392.743 184.926 393.726 186.61C394.709 188.295 394.217 192.983 395.368 196.001C396.519 199.019 398.541 200.872 402.654 202.907C406.486 204.816 415.806 206.009 418.838 207.918C425.492 214.74 438.041 227.472 441.213 229.83C445.579 233.073 449.804 236.063 456.486 229.634C463.167 223.205 482.525 197.98 482.525 197.98L486.525 173.991C479.956 173.752 475.31 175.324 470.733 181.318Z" fill="#B16668"/>
<path d="M447.446 213.042C449.916 214.867 452.485 218.966 452.724 220.805C452.695 219.062 452.306 217.345 451.581 215.76C450.856 214.175 449.812 212.758 448.513 211.596L447.446 213.042Z" fill="#9A4A4D"/>
<path d="M488.069 173.401C488.069 173.401 478.805 173.289 474.734 176.138C470.663 178.988 467.645 183.157 461.034 192.772C455.236 201.195 452.429 205.237 452.429 205.237C456.224 210.851 461.75 215.07 468.165 217.253L485.458 195.833L488.069 173.401Z" fill="#37474F"/>
<path d="M505.995 172.952C511.244 173.458 518.628 173.514 523.822 174.047C527.429 175.535 534.392 181.599 533.872 185.922C531.935 202.079 528.019 228.567 528.019 228.567L529.31 256.641C522.081 263.856 488.252 266.678 470.818 255.139C470.818 255.139 471.379 204.718 472.586 196.184C474.734 180.897 476.615 175.226 484.504 173.879C492.393 172.531 505.995 172.952 505.995 172.952Z" fill="#458FF6"/>
<path d="M535.725 181.725C539.515 186.694 559.027 213.449 559.027 213.449L577.05 199.496C581.261 196.183 582.511 191.86 585.15 188.884C587.789 185.908 590.68 185.178 593.642 182.68C596.604 180.181 597.741 178.286 598.752 180.406C599.762 182.525 596.492 186.273 595.944 187.172C595.397 188.07 592.014 190.218 596.478 189.979C600.941 189.74 609.518 184.631 611.609 183.69C613.701 182.75 613.729 185.319 612.761 187.003C611.792 188.688 612.255 193.39 611.118 196.408C609.981 199.426 607.946 201.265 603.833 203.314C600.001 205.223 590.68 206.416 587.648 208.326C580.995 215.133 568.445 227.879 565.273 230.223C560.908 233.466 556.682 236.456 550.001 230.041C543.319 223.626 528.047 203.651 528.047 203.651L519.961 174.398C526.517 174.159 531.163 175.731 535.725 181.725Z" fill="#B16668"/>
<path d="M559.027 213.449C556.556 215.274 553.987 219.373 553.749 221.212C553.776 219.467 554.164 217.747 554.889 216.159C555.613 214.572 556.659 213.152 557.96 211.989L559.027 213.449Z" fill="#9A4A4D"/>
<path d="M519.035 173.696C519.035 173.696 527.359 173.177 531.739 176.504C535.683 179.536 538.757 183.522 545.439 193.138C551.236 201.56 554.043 205.602 554.043 205.602C550.24 211.214 544.711 215.433 538.294 217.618L526.517 203.104C520.383 195.327 514.305 183.494 519.035 173.696Z" fill="#37474F"/>
<path d="M507.3 134.94C507.328 138.16 506.4 141.316 504.634 144.009C502.868 146.702 500.343 148.811 497.378 150.069C494.413 151.327 491.142 151.677 487.979 151.076C484.815 150.475 481.9 148.95 479.603 146.692C477.307 144.435 475.731 141.547 475.075 138.394C474.42 135.241 474.714 131.964 475.921 128.978C477.127 125.993 479.192 123.432 481.854 121.619C484.517 119.807 487.656 118.825 490.877 118.797C493.015 118.779 495.136 119.181 497.119 119.983C499.101 120.784 500.907 121.968 502.432 123.467C503.957 124.966 505.172 126.751 506.007 128.719C506.842 130.688 507.282 132.801 507.3 134.94Z" fill="#263238"/>
<path d="M519.274 146.422C519.274 146.422 516.733 158.845 515.694 160.88C515.003 162.144 513.852 163.094 512.48 163.533L512.578 154.802L519.274 146.422Z" fill="#263238"/>
<path d="M515.806 128.693C516.727 128.575 517.662 128.669 518.54 128.969C519.419 129.268 520.217 129.764 520.874 130.42C523.064 132.624 521.913 139.586 519.274 146.422L514.304 147.04L515.806 128.693Z" fill="#263238"/>
<path d="M512.817 147.054C513.813 147.643 515.217 145.65 516.438 144.415C517.659 143.179 521.646 141.326 523.695 145.524C525.745 149.721 522.011 155.518 518.867 156.529C513.434 158.297 512.578 154.802 512.578 154.802L512.353 175.044C505.672 183.789 486.876 183.213 494.625 174.089V168.109C492.205 168.515 489.748 168.661 487.297 168.544C483.283 167.969 480.742 164.825 479.478 160.501C477.471 153.567 476.671 147.952 478.215 134.238C479.9 119.218 497.348 118.909 506.823 124.763C516.298 130.616 512.817 147.054 512.817 147.054Z" fill="#B16668"/>
<path d="M512.831 148.724C513.322 148.724 515.203 145.552 516.438 144.415C518.137 142.828 515.806 128.693 515.806 128.693C516.39 127.439 516.581 126.038 516.356 124.673C516.13 123.308 515.499 122.043 514.543 121.043C512.171 118.474 508.858 115.344 498.19 116.691C490.568 117.66 482.3 120.116 475.576 116.888C474.978 119.077 475.045 121.394 475.77 123.545C476.495 125.695 477.845 127.58 479.647 128.96C479.647 128.96 482.089 130.504 488.476 131.22C494.365 131.607 500.277 131.443 506.135 130.728C507.988 130.462 508.395 132.244 509.434 137.143C510.346 141.425 511.146 148.71 512.831 148.724Z" fill="#263238"/>
<path d="M515.806 129.788L521.8 126.503C521.606 126.098 521.331 125.736 520.992 125.44C520.653 125.145 520.257 124.921 519.829 124.783C519.401 124.645 518.949 124.596 518.501 124.638C518.053 124.681 517.619 124.814 517.224 125.029C516.421 125.488 515.825 126.238 515.561 127.125C515.297 128.011 515.385 128.965 515.806 129.788Z" fill="#263238"/>
<path d="M494.582 168.109C494.582 168.109 503.51 166.228 506.612 164.544C508.441 163.572 509.933 162.07 510.893 160.234C510.441 162.063 509.624 163.782 508.493 165.288C506.233 168.236 494.61 170.482 494.61 170.482L494.582 168.109Z" fill="#9A4A4D"/>
<path d="M493.866 145.622C493.863 145.861 493.906 146.098 493.995 146.32C494.083 146.542 494.215 146.745 494.382 146.916C494.549 147.087 494.748 147.223 494.968 147.316C495.188 147.41 495.424 147.459 495.663 147.461C496.036 147.475 496.405 147.377 496.722 147.179C497.039 146.981 497.289 146.693 497.44 146.352C497.591 146.01 497.637 145.632 497.571 145.264C497.504 144.897 497.33 144.558 497.069 144.29C496.808 144.023 496.473 143.841 496.107 143.766C495.741 143.691 495.361 143.728 495.016 143.871C494.672 144.015 494.378 144.258 494.173 144.57C493.968 144.882 493.861 145.249 493.866 145.622Z" fill="#263238"/>
<path d="M499.187 139.46L495.2 137.649C494.968 138.194 494.956 138.808 495.165 139.362C495.374 139.916 495.789 140.368 496.323 140.625C496.587 140.742 496.871 140.804 497.16 140.808C497.449 140.813 497.735 140.759 498.002 140.65C498.27 140.542 498.512 140.38 498.716 140.176C498.919 139.971 499.079 139.727 499.187 139.46Z" fill="#263238"/>
<path d="M482.132 137.256L478.664 139.979C478.828 140.215 479.039 140.415 479.283 140.566C479.528 140.717 479.801 140.816 480.086 140.857C480.37 140.898 480.66 140.88 480.937 140.803C481.214 140.727 481.473 140.595 481.696 140.414C482.157 140.042 482.458 139.508 482.539 138.921C482.619 138.334 482.474 137.739 482.132 137.256Z" fill="#263238"/>
<path d="M480.04 145.187C480.057 145.522 480.171 145.845 480.37 146.116C480.568 146.386 480.842 146.592 481.157 146.709C481.472 146.825 481.814 146.846 482.14 146.77C482.467 146.694 482.764 146.523 482.995 146.279C483.225 146.035 483.379 145.729 483.437 145.398C483.495 145.068 483.455 144.727 483.321 144.42C483.187 144.112 482.966 143.85 482.684 143.667C482.403 143.484 482.074 143.388 481.738 143.39C481.509 143.395 481.282 143.446 481.072 143.54C480.862 143.633 480.673 143.767 480.515 143.934C480.357 144.101 480.234 144.298 480.152 144.513C480.071 144.728 480.033 144.957 480.04 145.187Z" fill="#263238"/>
<path d="M489.333 143.741L488.322 154.479L482.777 152.346L489.333 143.741Z" fill="#9A4A4D"/>
<path d="M492.379 158.508C492.376 158.85 492.475 159.185 492.663 159.471C492.851 159.757 493.119 159.98 493.435 160.113C493.75 160.246 494.097 160.282 494.433 160.217C494.769 160.152 495.078 159.989 495.321 159.748C495.564 159.507 495.73 159.199 495.797 158.864C495.865 158.529 495.832 158.181 495.702 157.865C495.571 157.548 495.35 157.278 495.066 157.087C494.782 156.897 494.447 156.795 494.105 156.795C493.65 156.795 493.213 156.975 492.889 157.296C492.566 157.617 492.382 158.052 492.379 158.508Z" fill="#9A4A4D"/>
<path d="M536.202 44.1478C538.879 44.744 541.459 45.7126 543.867 47.0255C546.169 48.2648 548.232 49.9047 549.959 51.8682C551.62 53.7706 552.846 56.0125 553.552 58.4376C554.291 61.0082 554.349 63.7266 553.721 66.3264C553.305 68.3901 552.484 70.351 551.306 72.0957C550.248 73.5967 548.976 74.935 547.53 76.0682C546.116 77.166 544.608 78.1382 543.024 78.9738L538.561 81.3321C537.214 82.0352 535.936 82.8623 534.742 83.8026C533.664 84.6205 532.838 85.7245 532.356 86.989C532.114 87.5528 531.72 88.0386 531.219 88.3927C530.979 88.5766 530.7 88.7036 530.403 88.7644C530.107 88.8252 529.8 88.8181 529.507 88.7436L522.937 87.3399C522.622 87.2734 522.323 87.1449 522.058 86.9617C521.793 86.7786 521.567 86.5445 521.393 86.2731C521.21 86.019 521.088 85.7251 521.04 85.4154C520.991 85.1056 521.016 84.7887 521.112 84.4904C521.659 82.4484 522.614 80.5384 523.92 78.8756C525.096 77.4081 526.454 76.0967 527.963 74.9733C529.419 73.9075 530.964 72.9682 532.581 72.1659C534.181 71.3657 535.669 70.5937 537.045 69.8357C538.303 69.1712 539.484 68.371 540.568 67.4494C541.513 66.6535 542.169 65.568 542.435 64.3612C542.677 63.3073 542.661 62.2103 542.387 61.164C542.114 60.1177 541.59 59.1534 540.863 58.3534C539.048 56.3699 536.622 55.0505 533.97 54.6055C529.067 53.5106 524.921 55.1623 521.534 59.5606C521.209 60.0421 520.794 60.4567 520.312 60.7818C520.052 60.9145 519.767 60.994 519.476 61.0157C519.184 61.0374 518.891 61.0008 518.614 60.9081L511.595 59.35C511.348 59.3023 511.112 59.2058 510.903 59.066C510.693 58.9262 510.513 58.7459 510.374 58.5359C510.221 58.3208 510.118 58.0746 510.072 57.8148C510.026 57.5551 510.038 57.2884 510.107 57.0339C510.698 54.8765 511.806 52.896 513.336 51.2646C515.053 49.3689 517.092 47.7912 519.358 46.6043C521.841 45.3006 524.52 44.4093 527.289 43.9654C530.244 43.4455 533.271 43.5075 536.202 44.1478ZM528.791 94.0356C529.099 94.1014 529.39 94.2301 529.646 94.4137C529.902 94.5973 530.117 94.8318 530.279 95.1024C530.451 95.3644 530.569 95.6588 530.625 95.9677C530.68 96.2765 530.672 96.5934 530.602 96.8992L528.917 104.507C528.776 105.115 528.404 105.643 527.88 105.981C527.356 106.319 526.721 106.44 526.11 106.318L518.67 104.676C518.364 104.61 518.074 104.483 517.818 104.302C517.562 104.121 517.346 103.89 517.182 103.623C517.007 103.362 516.888 103.068 516.832 102.758C516.777 102.449 516.786 102.132 516.859 101.826L518.544 94.2041C518.685 93.5967 519.057 93.0681 519.581 92.7301C520.105 92.3922 520.74 92.2714 521.351 92.3933L528.791 94.0356Z" fill="#458FF6"/>
<path d="M558.269 115.723C560.125 115.417 562.016 115.379 563.883 115.611C565.679 115.814 567.424 116.337 569.035 117.155C570.574 117.942 571.924 119.053 572.993 120.411C574.127 121.867 574.858 123.595 575.113 125.422C575.404 126.844 575.404 128.31 575.113 129.732C574.821 130.969 574.348 132.156 573.709 133.255C573.084 134.315 572.37 135.32 571.576 136.259L569.316 138.926C568.636 139.724 568.025 140.579 567.491 141.481C567.015 142.283 566.772 143.202 566.789 144.134C566.787 144.572 566.66 145 566.424 145.369C566.317 145.546 566.172 145.696 566 145.81C565.827 145.924 565.632 145.999 565.428 146.029L560.837 146.787C560.394 146.857 559.941 146.751 559.574 146.492C559.394 146.375 559.244 146.217 559.134 146.032C559.025 145.847 558.959 145.64 558.942 145.425C558.75 143.987 558.86 142.524 559.265 141.13C559.629 139.879 560.163 138.684 560.851 137.579C561.509 136.52 562.255 135.52 563.083 134.589C563.912 133.662 564.656 132.792 565.357 131.95C565.99 131.201 566.541 130.387 567 129.521C567.402 128.77 567.545 127.906 567.407 127.065C567.293 126.325 567 125.625 566.555 125.023C566.11 124.422 565.526 123.937 564.852 123.612C563.188 122.799 561.299 122.572 559.49 122.966C557.853 123.207 556.331 123.947 555.13 125.085C553.93 126.223 553.109 127.704 552.78 129.325C552.691 129.721 552.529 130.097 552.303 130.434C552.031 130.732 551.653 130.913 551.25 130.939L546.365 131.739C546.018 131.796 545.663 131.721 545.369 131.529C545.215 131.429 545.085 131.297 544.988 131.142C544.891 130.987 544.829 130.812 544.807 130.63C544.637 129.097 544.844 127.545 545.411 126.11C546.02 124.451 546.923 122.915 548.078 121.576C549.337 120.107 550.825 118.851 552.485 117.857C554.256 116.777 556.221 116.052 558.269 115.723ZM566.284 149.679C566.499 149.642 566.719 149.65 566.931 149.701C567.144 149.751 567.343 149.844 567.519 149.973C567.695 150.098 567.843 150.257 567.957 150.44C568.07 150.623 568.146 150.827 568.179 151.04L569.049 156.346C569.085 156.561 569.078 156.782 569.027 156.994C568.976 157.206 568.884 157.406 568.754 157.581C568.631 157.759 568.473 157.909 568.29 158.022C568.106 158.136 567.901 158.21 567.687 158.241L562.494 159.097C562.281 159.132 562.063 159.124 561.853 159.074C561.644 159.023 561.446 158.931 561.273 158.803C561.093 158.681 560.94 158.523 560.824 158.34C560.708 158.156 560.631 157.951 560.599 157.736L559.728 152.416C559.664 151.978 559.776 151.533 560.039 151.178C560.302 150.823 560.695 150.587 561.132 150.521L566.284 149.679Z" fill="#458FF6"/>
<g opacity="0.2">
<path opacity="0.2" d="M558.269 115.723C560.125 115.417 562.016 115.379 563.883 115.611C565.679 115.814 567.424 116.337 569.035 117.155C570.574 117.942 571.924 119.053 572.993 120.411C574.127 121.867 574.858 123.595 575.113 125.422C575.404 126.844 575.404 128.31 575.113 129.732C574.821 130.969 574.348 132.156 573.709 133.255C573.084 134.315 572.37 135.32 571.576 136.259L569.316 138.926C568.636 139.724 568.025 140.579 567.491 141.481C567.015 142.283 566.772 143.202 566.789 144.134C566.787 144.572 566.66 145 566.424 145.369C566.317 145.546 566.172 145.696 566 145.81C565.827 145.924 565.632 145.999 565.428 146.029L560.837 146.787C560.394 146.857 559.941 146.751 559.574 146.492C559.394 146.375 559.244 146.217 559.134 146.032C559.025 145.847 558.959 145.64 558.942 145.425C558.75 143.987 558.86 142.524 559.265 141.13C559.629 139.879 560.163 138.684 560.851 137.579C561.509 136.52 562.255 135.52 563.083 134.589C563.912 133.662 564.656 132.792 565.357 131.95C565.99 131.201 566.541 130.387 567 129.521C567.402 128.77 567.545 127.906 567.407 127.065C567.293 126.325 567 125.625 566.555 125.023C566.11 124.422 565.526 123.937 564.852 123.612C563.188 122.799 561.299 122.572 559.49 122.966C557.853 123.207 556.331 123.947 555.13 125.085C553.93 126.223 553.109 127.704 552.78 129.325C552.691 129.721 552.529 130.097 552.303 130.434C552.031 130.732 551.653 130.913 551.25 130.939L546.365 131.739C546.018 131.796 545.663 131.721 545.369 131.529C545.215 131.429 545.085 131.297 544.988 131.142C544.891 130.987 544.829 130.812 544.807 130.63C544.637 129.097 544.844 127.545 545.411 126.11C546.02 124.451 546.923 122.915 548.078 121.576C549.337 120.107 550.825 118.851 552.485 117.857C554.256 116.777 556.221 116.052 558.269 115.723ZM566.284 149.679C566.499 149.642 566.719 149.65 566.931 149.701C567.144 149.751 567.343 149.844 567.519 149.973C567.695 150.098 567.843 150.257 567.957 150.44C568.07 150.623 568.146 150.827 568.179 151.04L569.049 156.346C569.085 156.561 569.078 156.782 569.027 156.994C568.976 157.206 568.884 157.406 568.754 157.581C568.631 157.759 568.473 157.909 568.29 158.022C568.106 158.136 567.901 158.21 567.687 158.241L562.494 159.097C562.281 159.132 562.063 159.124 561.853 159.074C561.644 159.023 561.446 158.931 561.273 158.803C561.093 158.681 560.94 158.523 560.824 158.34C560.708 158.156 560.631 157.951 560.599 157.736L559.728 152.416C559.664 151.978 559.776 151.533 560.039 151.178C560.302 150.823 560.695 150.587 561.132 150.521L566.284 149.679Z" fill="black"/>
</g>
<path d="M606.135 130.785C606.552 131.089 606.834 131.543 606.92 132.052C607.007 132.561 606.891 133.083 606.598 133.508L602.893 138.702C602.589 139.118 602.134 139.4 601.625 139.487C601.116 139.573 600.594 139.458 600.169 139.165L595.088 135.557C594.878 135.411 594.701 135.223 594.566 135.006C594.431 134.789 594.341 134.547 594.302 134.294C594.228 133.802 594.343 133.3 594.625 132.89L598.33 127.682C598.631 127.264 599.085 126.981 599.594 126.896C600.088 126.822 600.591 126.943 600.998 127.233L606.135 130.785ZM627.584 95.5656C629.416 96.8583 631.052 98.4091 632.441 100.17C633.782 101.845 634.813 103.747 635.487 105.785C636.13 107.732 636.346 109.796 636.118 111.835C635.855 114.005 635.033 116.071 633.732 117.828C632.762 119.25 631.522 120.466 630.082 121.408C628.802 122.203 627.412 122.803 625.955 123.191C624.544 123.567 623.102 123.821 621.646 123.949L617.519 124.299C616.287 124.413 615.066 124.629 613.87 124.945C612.799 125.228 611.827 125.801 611.062 126.602C610.694 126.96 610.24 127.216 609.743 127.346C609.501 127.403 609.25 127.406 609.008 127.355C608.765 127.304 608.537 127.2 608.339 127.051L603.847 123.864C603.418 123.556 603.126 123.093 603.033 122.573C602.979 122.328 602.983 122.073 603.044 121.83C603.105 121.586 603.221 121.36 603.384 121.169C604.428 119.799 605.742 118.658 607.244 117.814C608.596 117.073 610.04 116.516 611.539 116.158C612.978 115.81 614.443 115.585 615.919 115.484C617.323 115.4 618.726 115.288 620.018 115.161C621.177 115.061 622.321 114.831 623.429 114.474C624.394 114.18 625.234 113.572 625.815 112.747C626.337 112.032 626.676 111.201 626.803 110.325C626.931 109.449 626.842 108.555 626.545 107.722C625.813 105.653 624.41 103.889 622.558 102.71C619.218 100.324 615.568 100.245 611.61 102.472C611.21 102.727 610.768 102.908 610.304 103.005C610.063 103.022 609.821 102.991 609.592 102.914C609.363 102.837 609.152 102.715 608.971 102.556L604.198 99.1591C603.85 98.9228 603.609 98.5602 603.524 98.1484C603.483 97.9378 603.489 97.7209 603.54 97.5126C603.59 97.3042 603.686 97.1093 603.819 96.9412C604.93 95.5055 606.376 94.3633 608.03 93.6144C609.929 92.7362 611.967 92.1993 614.052 92.0283C616.335 91.8421 618.634 92.0221 620.86 92.5617C623.278 93.1073 625.564 94.1284 627.584 95.5656Z" fill="#458FF6"/>
<g opacity="0.6">
<path opacity="0.6" d="M606.135 130.785C606.552 131.089 606.834 131.543 606.92 132.052C607.007 132.561 606.891 133.083 606.598 133.508L602.893 138.702C602.589 139.118 602.134 139.4 601.625 139.487C601.116 139.573 600.594 139.458 600.169 139.165L595.088 135.557C594.878 135.411 594.701 135.223 594.566 135.006C594.431 134.789 594.341 134.547 594.302 134.294C594.228 133.802 594.343 133.3 594.625 132.89L598.33 127.682C598.631 127.264 599.085 126.981 599.594 126.896C600.088 126.822 600.591 126.943 600.998 127.233L606.135 130.785ZM627.584 95.5656C629.416 96.8583 631.052 98.4091 632.441 100.17C633.782 101.845 634.813 103.747 635.487 105.785C636.13 107.732 636.346 109.796 636.118 111.835C635.855 114.005 635.033 116.071 633.732 117.828C632.762 119.25 631.522 120.466 630.082 121.408C628.802 122.203 627.412 122.803 625.955 123.191C624.544 123.567 623.102 123.821 621.646 123.949L617.519 124.299C616.287 124.413 615.066 124.629 613.87 124.945C612.799 125.228 611.827 125.801 611.062 126.602C610.694 126.96 610.24 127.216 609.743 127.346C609.501 127.403 609.25 127.406 609.008 127.355C608.765 127.304 608.537 127.2 608.339 127.051L603.847 123.864C603.418 123.556 603.126 123.093 603.033 122.573C602.979 122.328 602.983 122.073 603.044 121.83C603.105 121.586 603.221 121.36 603.384 121.169C604.428 119.799 605.742 118.658 607.244 117.814C608.596 117.073 610.04 116.516 611.539 116.158C612.978 115.81 614.443 115.585 615.919 115.484C617.323 115.4 618.726 115.288 620.018 115.161C621.177 115.061 622.321 114.831 623.429 114.474C624.394 114.18 625.234 113.572 625.815 112.747C626.337 112.032 626.676 111.201 626.803 110.325C626.931 109.449 626.842 108.555 626.545 107.722C625.813 105.653 624.41 103.889 622.558 102.71C619.218 100.324 615.568 100.245 611.61 102.472C611.21 102.727 610.768 102.908 610.304 103.005C610.063 103.022 609.821 102.991 609.592 102.914C609.363 102.837 609.152 102.715 608.971 102.556L604.198 99.1591C603.85 98.9228 603.609 98.5602 603.524 98.1484C603.483 97.9378 603.489 97.7209 603.54 97.5126C603.59 97.3042 603.686 97.1093 603.819 96.9412C604.93 95.5055 606.376 94.3633 608.03 93.6144C609.929 92.7362 611.967 92.1993 614.052 92.0283C616.335 91.8421 618.634 92.0221 620.86 92.5617C623.278 93.1073 625.564 94.1284 627.584 95.5656Z" fill="white"/>
</g>
<path d="M153.804 408.691C153.664 404.48 156.696 363.323 156.696 363.323L136.651 377.865C140.764 402.402 141.648 408.2 141.718 412.214C141.634 412.549 141.596 412.894 141.606 413.239C141.606 418.011 147.01 420.58 151.207 423.767C154.775 426.556 158.574 429.036 162.563 431.178C165.609 432.708 171.814 432.849 172.572 430.883C167.462 426.981 160.037 421.142 155.966 416.692C154.029 414.558 153.959 412.874 153.804 408.691Z" fill="#FFA8A7"/>
<path d="M181.289 436.035C181.516 436.69 181.556 437.396 181.405 438.073C181.254 438.75 180.917 439.371 180.433 439.867C176.751 442.522 172.169 443.612 167.687 442.899C161.314 442.071 157.861 440.26 155.32 438.126C152.78 435.993 149.2 432.989 146.309 432.357C144.01 431.919 141.823 431.022 139.88 429.718C139.023 428.89 139.136 425.212 139.136 425.212L181.289 436.035Z" fill="#263238"/>
<path d="M141.676 411.049C141.44 411.056 141.214 411.146 141.037 411.302C140.86 411.459 140.744 411.672 140.708 411.905C140.511 412.916 140.301 415.864 139.88 417.52C139.228 420.448 139.02 423.458 139.262 426.448C139.613 428.343 143.964 429.648 146.758 430.659C150.043 432.089 153.091 434.011 155.798 436.358C159.704 439.279 164.366 441.018 169.231 441.369C174.144 441.369 179.675 439.741 180.952 437.467C182.51 434.66 181.289 433.017 174.004 429.634C172.6 429.003 167.785 426.125 166.129 425.086C161.665 422.279 157.243 418.362 155.18 413.393C155.014 412.786 154.648 412.252 154.141 411.877C153.699 411.687 153.209 411.638 152.737 411.737C151.521 411.914 150.338 412.274 149.228 412.804C148.26 413.267 146.87 413.814 146.884 415.064C146.914 415.497 147.009 415.922 147.165 416.327C147.249 416.594 147.319 416.931 147.165 417.085C147.01 417.24 146.673 417.085 146.477 416.889C145.763 416.158 145.11 415.369 144.526 414.53C144.181 414.101 143.79 413.71 143.361 413.365C142.931 413.122 142.519 412.85 142.125 412.551C141.592 412.172 141.704 411.639 141.676 411.049Z" fill="#455A64"/>
<path d="M155.798 436.428C154.52 435.389 153.173 434.364 151.825 433.466C151.825 433.466 160.388 438.674 163.841 436.274C164.482 435.867 164.95 435.239 165.158 434.509C165.365 433.778 165.296 432.998 164.964 432.315C164.964 431.726 170.41 429.185 172.572 428.932C173.175 429.269 173.681 429.536 173.976 429.676C181.261 433.059 182.482 434.687 180.924 437.509C179.647 439.783 175.646 441.565 169.301 441.565C165.174 441.65 158.745 438.842 155.798 436.428Z" fill="#37474F"/>
<path d="M164.36 430.617C168.894 432.428 166.957 433.27 165.694 433.424C164.43 433.579 156.808 429.213 152.148 425.479C147.488 421.745 144.245 417.436 142.448 416.032C141.775 415.513 141.045 414.867 140.399 414.264C140.525 413.267 140.623 412.355 140.708 411.877C140.744 411.644 140.86 411.43 141.037 411.274C141.214 411.118 141.44 411.028 141.676 411.021C141.676 411.611 141.592 412.158 142.041 412.593C142.434 412.892 142.847 413.164 143.277 413.407C143.706 413.752 144.096 414.143 144.442 414.572C145.026 415.411 145.678 416.2 146.393 416.931C151.444 422.608 157.545 427.255 164.36 430.617Z" fill="#263238"/>
<path d="M165.371 432.792C165.267 432.789 165.168 432.749 165.09 432.68C165.044 432.644 165.006 432.6 164.978 432.55C164.95 432.499 164.932 432.444 164.925 432.386C164.919 432.328 164.924 432.27 164.94 432.215C164.956 432.159 164.983 432.107 165.02 432.062C166.088 430.954 167.381 430.087 168.812 429.52C170.243 428.954 171.779 428.7 173.316 428.778C173.436 428.792 173.547 428.853 173.623 428.947C173.699 429.042 173.735 429.162 173.723 429.283C173.709 429.4 173.649 429.507 173.558 429.58C173.466 429.654 173.349 429.688 173.232 429.676C171.844 429.619 170.459 429.851 169.166 430.359C167.873 430.866 166.7 431.638 165.722 432.624C165.679 432.676 165.625 432.718 165.565 432.747C165.504 432.776 165.438 432.791 165.371 432.792Z" fill="#F5F5F5"/>
<path d="M161.426 430.42C161.319 430.425 161.214 430.39 161.132 430.322C161.052 430.236 161.007 430.124 161.007 430.006C161.007 429.889 161.052 429.776 161.132 429.691C162.202 428.586 163.495 427.723 164.926 427.159C166.357 426.594 167.892 426.343 169.428 426.42C169.547 426.433 169.656 426.493 169.731 426.586C169.806 426.68 169.841 426.799 169.828 426.918C169.815 427.037 169.755 427.146 169.661 427.221C169.568 427.296 169.448 427.331 169.329 427.318C167.941 427.257 166.555 427.488 165.262 427.996C163.968 428.504 162.796 429.277 161.819 430.266C161.772 430.322 161.711 430.365 161.642 430.392C161.574 430.419 161.5 430.429 161.426 430.42Z" fill="#F5F5F5"/>
<path d="M157.468 428.048C157.366 428.049 157.266 428.014 157.187 427.95C157.104 427.865 157.057 427.752 157.057 427.634C157.057 427.516 157.104 427.402 157.187 427.318C158.258 426.214 159.552 425.351 160.982 424.787C162.413 424.223 163.947 423.971 165.483 424.047C165.542 424.053 165.6 424.069 165.652 424.097C165.705 424.125 165.751 424.162 165.789 424.208C165.827 424.254 165.855 424.307 165.873 424.363C165.89 424.42 165.896 424.48 165.89 424.539C165.885 424.598 165.868 424.655 165.84 424.708C165.813 424.76 165.775 424.807 165.729 424.844C165.684 424.882 165.631 424.911 165.574 424.928C165.518 424.946 165.458 424.951 165.399 424.946C164.011 424.885 162.625 425.115 161.331 425.623C160.038 426.131 158.865 426.904 157.889 427.893C157.837 427.952 157.771 427.996 157.698 428.023C157.624 428.05 157.545 428.059 157.468 428.048Z" fill="#F5F5F5"/>
<path d="M153.804 425.423C153.702 425.424 153.603 425.389 153.524 425.325C153.481 425.284 153.446 425.235 153.423 425.181C153.4 425.127 153.388 425.068 153.388 425.009C153.388 424.95 153.4 424.891 153.423 424.837C153.446 424.783 153.481 424.734 153.524 424.693C154.592 423.587 155.886 422.723 157.317 422.159C158.748 421.594 160.283 421.343 161.819 421.422C161.936 421.437 162.043 421.496 162.116 421.588C162.19 421.68 162.224 421.797 162.212 421.914C162.198 422.031 162.139 422.137 162.047 422.211C161.955 422.284 161.838 422.319 161.721 422.307C160.334 422.252 158.95 422.485 157.657 422.993C156.364 423.5 155.191 424.27 154.211 425.255C154.164 425.315 154.101 425.363 154.03 425.392C153.959 425.422 153.881 425.432 153.804 425.423Z" fill="#F5F5F5"/>
<path d="M150.225 422.798C150.124 422.793 150.026 422.759 149.944 422.7C149.861 422.616 149.814 422.502 149.814 422.384C149.814 422.266 149.861 422.152 149.944 422.068C151.102 420.863 152.519 419.939 154.088 419.365C155.657 418.791 157.336 418.582 158.998 418.755C159.057 418.759 159.115 418.774 159.168 418.801C159.221 418.828 159.268 418.867 159.305 418.913C159.342 418.959 159.369 419.013 159.384 419.071C159.399 419.128 159.401 419.188 159.391 419.247C159.377 419.364 159.318 419.47 159.226 419.544C159.134 419.617 159.017 419.652 158.9 419.64C157.389 419.491 155.865 419.681 154.437 420.195C153.009 420.71 151.714 421.537 150.646 422.616C150.597 422.679 150.532 422.729 150.459 422.761C150.385 422.793 150.305 422.806 150.225 422.798Z" fill="#F5F5F5"/>
<path d="M116.045 382.062L95.8171 381.698C96.1119 395.201 98.2596 410.179 98.6246 422.84C98.6246 425.226 98.6246 441.369 99.4668 446.282C100.87 453.652 109.573 452.655 110.037 448.247C110.5 443.84 109.475 424.988 109.503 422.981C109.419 414.867 113.223 401.153 115.23 386.568C115.315 385.909 115.946 382.764 116.045 382.062Z" fill="#FFA8A7"/>
<path d="M113.321 451.307C113.697 454.686 113.214 458.104 111.918 461.246C111.276 462.494 110.24 463.495 108.971 464.094C107.702 464.693 106.271 464.856 104.899 464.558C101.909 464.123 97.9648 462.523 96.7576 458.944C95.6146 455.647 95.212 452.139 95.5785 448.668L113.321 451.307Z" fill="#263238"/>
<path d="M98.5684 421.296C97.3752 421.507 97.5998 427.332 97.4875 433.186C97.3612 439.474 95.775 442.225 95.6206 447.377C95.4381 453.273 96.0136 455.799 98.428 459.14C100.842 462.481 108.38 465.176 111.426 459.786C113.911 455.392 113.574 450.83 112.718 445.047C111.861 439.264 111.188 434.884 110.963 430.308C110.739 425.732 110.64 421.675 109.559 421.296C109.559 421.942 109.559 422.77 109.559 423.402C109.559 424.033 109.658 426.209 108.984 426.349C108.88 425.808 108.819 425.259 108.801 424.707C108.833 424.197 108.667 423.695 108.338 423.303C107.932 423.004 107.439 422.846 106.934 422.854C105.732 422.719 104.523 422.653 103.313 422.658C102.709 422.658 102.092 422.658 101.502 422.756C100.983 422.796 100.475 422.924 100 423.135C99.8602 423.195 99.7342 423.283 99.6303 423.394C99.5264 423.505 99.4468 423.637 99.3966 423.781C99.3544 424.003 99.3544 424.232 99.3966 424.454C99.4458 424.855 99.4458 425.261 99.3966 425.662C99.3966 425.844 99.2702 426.069 99.0878 426.041C98.9053 426.013 98.8772 425.844 98.8632 425.704C98.7789 425.002 98.8632 424.483 98.7789 423.668C98.7789 423.289 98.7789 422.77 98.7789 422.391C98.7789 422.012 98.5824 421.675 98.5684 421.296Z" fill="#455A64"/>
<path d="M95.7189 445.692C95.7189 446.549 95.5364 452.178 97.1226 453.02C98.7088 453.862 99.3264 449.482 99.3264 449.482C99.3264 449.482 103.046 447.924 108.886 449.805C108.689 450.732 109.84 453.623 111.314 452.837C112.788 452.051 112.718 445.636 112.718 445.552C113.518 451.167 113.771 455.518 111.314 459.786C108.268 465.176 100.702 462.453 98.3157 459.14C95.9294 455.827 95.3539 453.272 95.5083 447.377C95.5785 446.787 95.6768 446.24 95.7189 445.692Z" fill="#37474F"/>
<path d="M99.7896 449.805C99.9721 451.911 97.8385 451.42 97.4454 448.402C97.0524 445.384 97.9788 438.239 97.4454 433.129C97.5577 427.276 97.3331 421.451 98.5263 421.24C98.5193 421.31 98.5193 421.381 98.5263 421.451L98.6667 424.412C98.639 424.833 98.639 425.255 98.6667 425.676C99.0597 429.971 99.2983 438.309 99.3124 442.268C99.3371 444.787 99.4964 447.303 99.7896 449.805Z" fill="#263238"/>
<path d="M108.212 449.805C108.487 447.321 108.623 444.823 108.619 442.324C108.619 438.393 108.872 430.154 109.265 425.83C109.417 425.03 109.478 424.215 109.447 423.402C109.447 422.812 109.447 421.998 109.447 421.437C109.447 421.437 109.447 421.352 109.447 421.296C110.233 421.591 110.514 423.907 110.682 426.827C110.682 428.525 110.682 430.631 110.528 433.186C109.995 438.295 110.921 445.538 110.528 448.5C110.135 451.462 108.072 451.911 108.212 449.805Z" fill="#263238"/>
<path d="M109.04 449.96H108.886C105.853 448.913 102.556 448.913 99.5229 449.96C99.4676 449.981 99.4087 449.991 99.3495 449.99C99.2903 449.988 99.232 449.975 99.1779 449.951C99.1238 449.927 99.075 449.892 99.0342 449.849C98.9935 449.806 98.9616 449.756 98.9404 449.7C98.9192 449.645 98.9091 449.586 98.9107 449.527C98.9123 449.468 98.9255 449.409 98.9496 449.355C98.9737 449.301 99.0082 449.252 99.0512 449.212C99.0942 449.171 99.1448 449.139 99.2001 449.118C102.436 447.962 105.972 447.962 109.209 449.118C109.264 449.138 109.314 449.169 109.357 449.209C109.4 449.249 109.434 449.298 109.458 449.352C109.481 449.405 109.494 449.463 109.494 449.522C109.495 449.581 109.484 449.639 109.461 449.693C109.427 449.775 109.368 449.845 109.293 449.893C109.217 449.941 109.129 449.964 109.04 449.96Z" fill="#F5F5F5"/>
<path d="M109.616 445.299C109.565 445.312 109.512 445.312 109.461 445.299C106.051 444.241 102.4 444.241 98.9895 445.299C98.9333 445.319 98.8737 445.328 98.8142 445.324C98.7547 445.321 98.6965 445.306 98.643 445.28C98.5894 445.253 98.5416 445.217 98.5023 445.172C98.4629 445.127 98.4329 445.075 98.414 445.019C98.3943 444.963 98.386 444.905 98.3896 444.846C98.3932 444.788 98.4085 444.731 98.4347 444.678C98.4609 444.626 98.4975 444.579 98.5422 444.541C98.5869 444.503 98.6388 444.475 98.6947 444.457C102.297 443.31 106.167 443.31 109.77 444.457C109.869 444.494 109.951 444.564 110.004 444.655C110.056 444.746 110.074 444.853 110.056 444.957C110.038 445.06 109.983 445.154 109.903 445.222C109.822 445.29 109.721 445.327 109.616 445.327V445.299Z" fill="#F5F5F5"/>
<path d="M98.807 440.892C98.7211 440.89 98.6375 440.863 98.5657 440.816C98.4938 440.769 98.4364 440.703 98.4 440.625C98.3524 440.517 98.3493 440.395 98.3913 440.284C98.4334 440.174 98.5171 440.085 98.6246 440.036C102.17 438.641 106.108 438.616 109.672 439.965C109.727 439.986 109.777 440.017 109.82 440.057C109.863 440.097 109.897 440.146 109.921 440.199C109.945 440.253 109.957 440.311 109.958 440.37C109.958 440.429 109.947 440.487 109.924 440.541C109.881 440.65 109.796 440.738 109.688 440.785C109.581 440.832 109.459 440.835 109.349 440.794C109.349 440.794 103.846 438.632 99.0036 440.794C98.9463 440.841 98.8791 440.874 98.807 440.892Z" fill="#F5F5F5"/>
<path d="M98.7088 436.765C98.624 436.765 98.5408 436.742 98.4687 436.697C98.3967 436.653 98.3388 436.588 98.3017 436.512C98.2532 436.406 98.248 436.285 98.2873 436.175C98.3266 436.065 98.4073 435.974 98.5122 435.923C100.272 435.121 102.18 434.695 104.114 434.673C106.048 434.651 107.965 435.034 109.742 435.796C109.795 435.82 109.843 435.855 109.883 435.898C109.922 435.941 109.953 435.991 109.972 436.046C109.992 436.101 110 436.16 109.997 436.218C109.993 436.276 109.978 436.333 109.952 436.386C109.928 436.439 109.894 436.487 109.851 436.526C109.808 436.566 109.757 436.597 109.702 436.616C109.647 436.636 109.589 436.644 109.531 436.641C109.472 436.637 109.415 436.622 109.363 436.596C107.695 435.906 105.905 435.561 104.1 435.583C102.295 435.604 100.514 435.992 98.8632 436.723C98.8143 436.745 98.7622 436.759 98.7088 436.765Z" fill="#F5F5F5"/>
<path d="M98.6105 432.147C98.5077 432.149 98.4075 432.115 98.3266 432.051C98.2456 431.988 98.189 431.899 98.166 431.798C98.143 431.698 98.155 431.593 98.2002 431.501C98.2453 431.408 98.3208 431.334 98.414 431.291C103.762 428.652 109.531 431.178 109.77 431.291C109.826 431.312 109.877 431.344 109.919 431.387C109.961 431.429 109.994 431.479 110.015 431.535C110.036 431.591 110.045 431.65 110.042 431.71C110.038 431.769 110.022 431.828 109.995 431.88C109.946 431.988 109.856 432.072 109.746 432.114C109.636 432.156 109.513 432.152 109.405 432.105C109.405 432.105 103.79 429.648 98.8211 432.105C98.7561 432.138 98.6832 432.153 98.6105 432.147Z" fill="#F5F5F5"/>
<path d="M102.471 250.746C95.3399 270.496 96.5892 282.891 97.8104 303.595C98.9334 322.573 100.716 339.291 100.716 339.291C100.435 342.66 95.747 349.23 95.1012 364.109C94.8943 374.586 95.3632 385.065 96.505 395.482C96.505 395.482 105.84 398.893 113.728 395.482C113.728 395.482 121.8 359.842 124.004 342.422C125.913 327.22 129.253 307.792 129.253 307.792L136.272 342.352C134.9 346.996 134.196 351.812 134.18 356.655C134.18 364.783 137.956 387.383 137.956 387.383C137.956 387.383 148.414 390.765 155.04 384.884C155.04 384.884 157.664 352.36 158.591 339.965C159.826 323.43 158.029 278.104 154.057 254.901L102.471 250.746Z" fill="#455A64"/>
<path d="M129.338 307.736L132.257 281.739C132.257 281.739 145.326 279.999 151.25 274.426C149.55 277.084 147.285 279.334 144.616 281.015C141.947 282.697 138.94 283.769 135.809 284.154L131.598 308.354L136.37 342.295L129.338 307.736Z" fill="#37474F"/>
<path d="M161.651 231.473C155.292 224.931 143.81 210.136 143.81 210.136L137.325 187.677C138.774 187.752 140.227 187.752 141.676 187.677C148.695 188.14 150.758 188.744 155.124 193.516C158.591 197.32 171.814 215.372 176.404 221.45L188.602 205.911C191.536 201.489 191.059 196.534 192.575 192.927C194.091 189.319 196.547 187.733 198.512 184.505C200.478 181.276 200.941 179.114 202.555 180.785C204.169 182.455 202.302 186.947 202.064 187.972C201.825 188.996 199.355 192.043 203.467 190.456C207.58 188.87 213.925 181.36 215.553 179.83C217.182 178.3 218.052 180.672 217.687 182.553C217.322 184.434 219.091 188.674 218.445 191.776C218.043 194.896 216.491 197.754 214.094 199.791C211.132 202.767 203.889 206.431 201.053 210.347C198.218 214.263 192.168 226.433 188.42 233.761C183.717 243.081 179.717 246.155 174.383 243.011C169.049 239.867 163.995 233.901 161.651 231.473Z" fill="#FFA8A7"/>
<path d="M139.388 187.438C142.977 187.08 146.601 187.56 149.972 188.842C153.776 190.555 156.359 194.232 160.079 199.216C163.799 204.199 170.438 212.916 170.438 212.916C170.438 212.916 168.641 220.482 156.794 227.276L137.451 207.357L139.388 187.438Z" fill="#37474F"/>
<path d="M176.404 221.436C174.09 223.619 172.54 226.488 171.982 229.62C171.982 229.62 170.579 225.114 175.365 220.047L176.404 221.436Z" fill="#F28F8F"/>
<path d="M153.397 227.318C162.03 220.215 159.181 210.965 156.036 204.732C149.734 192.281 143.178 187.382 140.441 187.424L123.274 187.593C115.076 188.716 108.731 188.154 106.752 188.618C101.699 189.811 101.586 193.966 101.39 199.342C101.179 205.237 98.1613 204.241 99.6914 213.982C101.496 217.603 103.08 221.33 104.436 225.142C105.362 228.511 107.973 233.873 106.584 239.319C106.05 241.425 104.618 243.531 102.471 249.3C100.036 255.785 98.2259 262.487 97.0664 269.317C97.0664 269.317 102.078 268.152 107.777 262.088C107.777 262.088 115.567 272.517 134.307 271.464C153.748 270.369 155.461 260.235 155.461 260.235L152.485 241.986C152.934 234.617 153.131 231.95 153.397 227.318Z" fill="#458FF6"/>
<path opacity="0.1" d="M142.182 225.479C142.182 225.479 135.163 231.094 126.923 228.399C124.628 227.711 122.547 226.446 120.879 224.726C119.21 223.006 118.01 220.888 117.392 218.573C117.392 218.573 116.69 227.907 127.05 230.911C129.821 231.752 132.789 231.677 135.515 230.699C138.24 229.721 140.578 227.89 142.182 225.479Z" fill="black"/>
<path d="M93.0378 179.409C90.4971 177.556 76.8109 195.875 83.2118 200.465C89.6127 205.055 96.4347 192.042 95.0591 185.894C93.6835 179.746 93.0378 179.409 93.0378 179.409Z" fill="#37474F"/>
<path d="M80.615 170.313C84.04 165.569 86.3702 161.989 89.5005 157.918C91.2691 155.602 92.4061 153.96 94.1046 151.588C95.2837 149.959 95.9716 148.584 97.2911 148.064C98.7641 147.416 100.081 146.459 101.151 145.257C101.807 144.497 102.412 143.696 102.962 142.857C104.941 140.117 107.305 137.677 109.981 135.614C112.788 133.438 115.862 131.753 118.726 129.676C120.424 128.441 122.249 126.405 120.129 124.566C119.471 124.035 118.689 123.677 117.855 123.528C112.746 122.503 108.324 124.342 103.355 125.703C101.194 126.292 99.0824 127.048 97.0384 127.963C96.0236 128.375 95.0771 128.938 94.231 129.634C93.0555 130.862 92.1053 132.287 91.4236 133.845C89.2478 137.845 84.6577 141.411 81.4432 144.541C77.6672 148.219 74.2983 151.56 69.9889 155.644C66.1147 159.294 62.3107 162.663 58.7593 166.649C55.8255 169.934 56.9625 172.461 57.3556 173.317C59.8822 178.286 62.6335 180.041 65.9463 183.143C67.0412 184.154 68.1501 185.15 69.259 186.147C73.5544 190.021 77.8497 193.643 82.3135 197.377C87.0861 201.307 89.0513 203.216 93.3045 207.034C95.9885 209.499 98.2253 212.411 99.916 215.639C107.285 216.86 114.529 205.588 108.212 192.408C107.173 190.276 105.602 188.448 103.65 187.102C95.8733 181.557 80.615 170.313 80.615 170.313Z" fill="#FFA8A7"/>
<path d="M80.615 170.313C78.3159 173.232 75.227 175.43 71.7155 176.644C71.7155 176.644 76.4179 177.767 82.7346 171.885L80.615 170.313Z" fill="#F28F8F"/>
<path d="M107.342 188.505C105.615 187.312 101.418 184.771 93.0378 179.409C93.0378 179.409 94.3292 182.118 92.2938 188.926C90.2585 195.734 85.9631 200.044 83.268 200.535C83.268 200.535 87.9564 204.241 92.2798 208.424C96.6032 212.607 100.155 215.569 102.653 220.426C102.653 220.426 108.83 218.839 110.233 208.368C111.216 201.026 110.626 192.408 107.342 188.505Z" fill="#455A64"/>
<path d="M154.225 154.788C155.459 152.18 156.003 149.299 155.804 146.421C155.605 143.543 154.67 140.764 153.088 138.351C147.768 130.785 138.799 127.121 128.888 127.233H125.814C112.437 127.458 100.281 138.94 100.042 151.868C100.042 160.964 100.042 169.373 105.054 175.577C109.672 181.346 116.873 183.241 122.951 184.168C134.574 185.936 147.628 184.589 152.906 176.672C152.906 176.672 145.887 178.076 146.772 170.804C146.898 169.653 145.803 168.39 143.88 167.085C145.227 164.751 146.812 162.564 148.611 160.557C150.59 158.578 152.878 157.469 154.225 154.788Z" fill="#263238"/>
<path d="M150.758 161.428C150.688 174.973 146.351 178.385 144.175 179.395C141.999 180.406 137.732 179.872 133.591 179.269L133.731 187.396C133.731 187.396 138.574 192.295 138.293 196.029C138.013 199.763 130.882 200.24 125.477 196.745C122.5 194.773 119.8 192.413 117.448 189.726C116.999 189.207 116.746 188.546 116.732 187.86L116.395 168.755C116.395 168.755 114.178 171.183 110.135 168.516C109.262 167.983 108.509 167.273 107.924 166.433C107.34 165.592 106.936 164.64 106.74 163.635C106.543 162.631 106.557 161.596 106.782 160.598C107.006 159.599 107.436 158.658 108.043 157.834C108.615 157.279 109.3 156.856 110.053 156.594C110.805 156.333 111.606 156.24 112.398 156.321C113.191 156.403 113.956 156.657 114.639 157.067C115.322 157.476 115.908 158.03 116.353 158.69C117.589 160.993 117.476 162.621 119.161 162.354C120.845 162.087 120.915 160.263 121.028 158.957C121.14 157.652 121.028 157.231 121.196 155.518C125.197 154.662 129.338 149.089 129.801 145.018C132.511 146.351 135.498 147.025 138.518 146.984C142.996 146.675 145.312 145.776 147.516 142.548C148.041 143.287 148.461 144.094 148.765 144.948C149.389 146.677 149.858 148.457 150.169 150.268C150.669 153.966 150.866 157.698 150.758 161.428Z" fill="#FFA8A7"/>
<path d="M133.591 179.269C129.225 178.763 120.228 176.349 118.768 172.84C119.358 174.621 120.48 176.179 121.982 177.304C124.705 179.55 133.633 181.978 133.633 181.978L133.591 179.269Z" fill="#F28F8F"/>
<path d="M137.984 171.969C137.993 172.323 137.896 172.67 137.706 172.968C137.517 173.266 137.243 173.501 136.92 173.643C136.597 173.785 136.238 173.828 135.891 173.767C135.543 173.705 135.221 173.541 134.967 173.297C134.712 173.052 134.536 172.737 134.461 172.392C134.385 172.047 134.414 171.687 134.543 171.359C134.673 171.03 134.897 170.747 135.187 170.546C135.477 170.345 135.821 170.235 136.174 170.229C136.644 170.221 137.098 170.4 137.438 170.726C137.777 171.052 137.973 171.499 137.984 171.969Z" fill="#B16668"/>
<path d="M135.696 158.634C135.72 158.883 135.693 159.135 135.619 159.373C135.544 159.612 135.423 159.834 135.263 160.026C135.102 160.217 134.906 160.376 134.684 160.491C134.462 160.606 134.219 160.677 133.97 160.698C133.586 160.739 133.199 160.664 132.858 160.483C132.516 160.303 132.237 160.024 132.055 159.684C131.873 159.343 131.798 158.956 131.837 158.572C131.877 158.188 132.031 157.825 132.279 157.528C132.526 157.232 132.857 157.017 133.228 156.91C133.599 156.803 133.993 156.81 134.36 156.929C134.728 157.047 135.051 157.273 135.289 157.577C135.527 157.881 135.669 158.249 135.696 158.634Z" fill="#263238"/>
<path d="M148.358 157.834C148.393 158.292 148.246 158.744 147.949 159.094C147.652 159.444 147.229 159.662 146.772 159.701C146.541 159.729 146.308 159.708 146.087 159.638C145.866 159.567 145.662 159.45 145.49 159.295C145.318 159.139 145.182 158.948 145.091 158.734C144.999 158.521 144.955 158.291 144.961 158.059C144.938 157.831 144.96 157.602 145.027 157.383C145.094 157.165 145.204 156.962 145.351 156.787C145.497 156.612 145.677 156.468 145.88 156.363C146.083 156.258 146.305 156.195 146.533 156.178C146.994 156.159 147.444 156.322 147.785 156.632C148.127 156.942 148.333 157.374 148.358 157.834Z" fill="#263238"/>
<path d="M139.613 156.08L140.96 167.394L146.758 164.979L139.613 156.08Z" fill="#F28F8F"/>
<path d="M128.931 153.749L132.3 150.549C132.719 151.016 132.943 151.626 132.925 152.253C132.906 152.88 132.647 153.476 132.201 153.918C131.979 154.129 131.716 154.292 131.429 154.398C131.142 154.504 130.836 154.551 130.53 154.535C130.224 154.519 129.924 154.442 129.65 154.306C129.375 154.171 129.13 153.982 128.931 153.749Z" fill="#263238"/>
<path d="M145.789 149.51L149.523 152.318C149.351 152.571 149.129 152.787 148.871 152.951C148.613 153.116 148.323 153.226 148.021 153.275C147.719 153.323 147.409 153.309 147.112 153.234C146.816 153.159 146.537 153.024 146.294 152.837C145.806 152.449 145.482 151.89 145.388 151.273C145.294 150.656 145.438 150.026 145.789 149.51Z" fill="#263238"/>
<path d="M91.971 46.6887C94.6625 46.1754 97.414 46.0525 100.141 46.3237C102.746 46.5522 105.29 47.2464 107.65 48.3731C109.915 49.4543 111.918 51.0158 113.518 52.9492C115.205 55.0184 116.327 57.4898 116.774 60.1221C117.195 62.1878 117.195 64.3171 116.774 66.3827C116.397 68.1806 115.754 69.9122 114.865 71.5203C114.003 73.0851 113.003 74.5696 111.876 75.956C110.753 77.3597 109.686 78.6511 108.689 79.9004C107.736 81.0762 106.89 82.3352 106.162 83.6623C105.493 84.8406 105.168 86.1827 105.222 87.5366C105.23 88.166 105.07 88.7863 104.759 89.3333C104.612 89.5919 104.41 89.8151 104.167 89.9873C103.925 90.1595 103.648 90.2765 103.355 90.3299L96.7436 91.5792C96.4295 91.6417 96.1061 91.6404 95.7926 91.5752C95.4791 91.5101 95.1819 91.3826 94.9188 91.2002C94.6449 91.0434 94.4135 90.822 94.2447 90.5554C94.0759 90.2887 93.9748 89.9848 93.9502 89.6702C93.6279 87.5933 93.733 85.4725 94.259 83.4377C94.7581 81.6246 95.4894 79.8837 96.4348 78.2581C97.3487 76.7099 98.3961 75.2444 99.565 73.8785C100.73 72.4748 101.783 71.2114 102.751 69.9762C103.642 68.8668 104.413 67.6671 105.054 66.3967C105.604 65.2943 105.777 64.0415 105.545 62.8313C105.358 61.7647 104.914 60.7596 104.252 59.9035C103.589 59.0473 102.727 58.3659 101.741 57.9183C99.295 56.8068 96.5479 56.545 93.9362 57.1744C89.0138 58.1102 85.8555 61.2638 84.4611 66.6353C84.3385 67.2016 84.1201 67.7428 83.8154 68.2356C83.4262 68.6855 82.8778 68.9672 82.2854 69.0217L75.2669 70.3552C74.7821 70.4414 74.2825 70.3465 73.8631 70.0885C73.6427 69.9428 73.4551 69.7527 73.3125 69.5303C73.1699 69.3079 73.0754 69.0582 73.035 68.7971C72.7318 66.5828 72.9727 64.328 73.7368 62.2277C74.5315 59.8018 75.748 57.5352 77.3303 55.532C79.1045 53.3386 81.218 51.4431 83.5908 49.9172C86.1481 48.3072 88.9945 47.2106 91.971 46.6887ZM104.787 95.4675C105.411 95.3596 106.053 95.4983 106.576 95.8545C107.1 96.2107 107.465 96.7564 107.594 97.3765L108.998 105.041C109.062 105.348 109.061 105.665 108.996 105.972C108.931 106.279 108.802 106.569 108.619 106.823C108.447 107.085 108.224 107.309 107.963 107.482C107.703 107.656 107.41 107.775 107.103 107.834L99.6212 109.238C99.3118 109.302 98.9924 109.302 98.6831 109.237C98.3739 109.171 98.0815 109.043 97.8244 108.859C97.5633 108.686 97.3394 108.463 97.1658 108.203C96.9922 107.943 96.8725 107.65 96.8138 107.343L95.4101 99.6786C95.3514 99.3704 95.356 99.0534 95.4235 98.7469C95.4911 98.4405 95.6202 98.1509 95.8031 97.8959C95.9712 97.6309 96.1929 97.404 96.454 97.2299C96.7151 97.0559 97.0098 96.9384 97.3191 96.8852L104.787 95.4675Z" fill="#458FF6"/>
<path d="M163.307 78.3142C164.963 79.2321 166.476 80.3858 167.799 81.7392C169.086 83.0074 170.128 84.5015 170.873 86.1468C171.589 87.7205 171.957 89.4295 171.954 91.1581C171.953 93.0006 171.469 94.8105 170.551 96.408C169.863 97.6882 168.933 98.8228 167.813 99.7488C166.81 100.528 165.699 101.157 164.515 101.616C163.364 102.065 162.175 102.413 160.963 102.654L157.538 103.328C156.511 103.526 155.505 103.822 154.534 104.213C153.661 104.537 152.897 105.101 152.33 105.841C152.054 106.181 151.69 106.438 151.278 106.585C151.084 106.657 150.876 106.686 150.67 106.669C150.464 106.652 150.264 106.59 150.084 106.487L146.028 104.213C145.633 103.997 145.341 103.633 145.214 103.202C145.145 102.997 145.124 102.779 145.153 102.565C145.182 102.35 145.261 102.146 145.382 101.967C146.13 100.726 147.123 99.6507 148.302 98.8083C149.37 98.0621 150.531 97.4581 151.755 97.0115C152.929 96.5939 154.136 96.2746 155.362 96.057C156.584 95.8465 157.721 95.6359 158.787 95.4113C159.75 95.2101 160.691 94.9139 161.595 94.527C162.375 94.1827 163.025 93.5973 163.448 92.8566C163.816 92.2052 164.022 91.4742 164.046 90.7262C164.071 89.9781 163.913 89.2353 163.588 88.5612C162.786 86.8895 161.447 85.5352 159.784 84.7151C158.352 83.8874 156.699 83.5214 155.051 83.6671C153.403 83.8128 151.841 84.463 150.576 85.5292C150.263 85.7835 149.906 85.9786 149.523 86.1047C149.121 86.1715 148.709 86.081 148.372 85.8521L144.049 83.4377C143.743 83.2656 143.512 82.9852 143.403 82.6516C143.348 82.4772 143.331 82.2931 143.353 82.1117C143.375 81.9302 143.435 81.7554 143.529 81.5988C144.349 80.2939 145.47 79.2057 146.8 78.4265C148.313 77.5132 149.977 76.8763 151.713 76.5455C153.613 76.1729 155.562 76.1113 157.482 76.363C159.531 76.6328 161.509 77.2953 163.307 78.3142ZM148.512 109.827C148.703 109.933 148.871 110.076 149.006 110.247C149.141 110.418 149.24 110.614 149.298 110.824C149.361 111.031 149.38 111.248 149.356 111.463C149.332 111.678 149.265 111.885 149.158 112.073L146.533 116.776C146.32 117.158 145.964 117.441 145.543 117.562C145.123 117.683 144.671 117.633 144.287 117.421L139.697 114.853C139.504 114.752 139.335 114.611 139.201 114.439C139.068 114.267 138.974 114.068 138.925 113.856C138.858 113.65 138.835 113.433 138.857 113.218C138.879 113.003 138.945 112.795 139.051 112.607L141.676 107.904C141.783 107.716 141.926 107.55 142.097 107.418C142.268 107.285 142.464 107.188 142.673 107.132C142.879 107.067 143.097 107.045 143.312 107.07C143.528 107.094 143.735 107.163 143.922 107.273L148.512 109.827Z" fill="#458FF6"/>
<g opacity="0.2">
<path opacity="0.2" d="M163.307 78.3142C164.963 79.2321 166.476 80.3858 167.799 81.7392C169.086 83.0074 170.128 84.5015 170.873 86.1468C171.589 87.7205 171.957 89.4295 171.954 91.1581C171.953 93.0006 171.469 94.8105 170.551 96.408C169.863 97.6882 168.933 98.8228 167.813 99.7488C166.81 100.528 165.699 101.157 164.515 101.616C163.364 102.065 162.175 102.413 160.963 102.654L157.538 103.328C156.511 103.526 155.505 103.822 154.534 104.213C153.661 104.537 152.897 105.101 152.33 105.841C152.054 106.181 151.69 106.438 151.278 106.585C151.084 106.657 150.876 106.686 150.67 106.669C150.464 106.652 150.264 106.59 150.084 106.487L146.028 104.213C145.633 103.997 145.341 103.633 145.214 103.202C145.145 102.997 145.124 102.779 145.153 102.565C145.182 102.35 145.261 102.146 145.382 101.967C146.13 100.726 147.123 99.6507 148.302 98.8083C149.37 98.0621 150.531 97.4581 151.755 97.0115C152.929 96.5939 154.136 96.2746 155.362 96.057C156.584 95.8465 157.721 95.6359 158.787 95.4113C159.75 95.2101 160.691 94.9139 161.595 94.527C162.375 94.1827 163.025 93.5973 163.448 92.8566C163.816 92.2052 164.022 91.4742 164.046 90.7262C164.071 89.9781 163.913 89.2353 163.588 88.5612C162.786 86.8895 161.447 85.5352 159.784 84.7151C158.352 83.8874 156.699 83.5214 155.051 83.6671C153.403 83.8128 151.841 84.463 150.576 85.5292C150.263 85.7835 149.906 85.9786 149.523 86.1047C149.121 86.1715 148.709 86.081 148.372 85.8521L144.049 83.4377C143.743 83.2656 143.512 82.9852 143.403 82.6516C143.348 82.4772 143.331 82.2931 143.353 82.1117C143.375 81.9302 143.435 81.7554 143.529 81.5988C144.349 80.2939 145.47 79.2057 146.8 78.4265C148.313 77.5132 149.977 76.8763 151.713 76.5455C153.613 76.1729 155.562 76.1113 157.482 76.363C159.531 76.6328 161.509 77.2953 163.307 78.3142ZM148.512 109.827C148.703 109.933 148.871 110.076 149.006 110.247C149.141 110.418 149.24 110.614 149.298 110.824C149.361 111.031 149.38 111.248 149.356 111.463C149.332 111.678 149.265 111.885 149.158 112.073L146.533 116.776C146.32 117.158 145.964 117.441 145.543 117.562C145.123 117.683 144.671 117.633 144.287 117.421L139.697 114.853C139.504 114.752 139.335 114.611 139.201 114.439C139.068 114.267 138.974 114.068 138.925 113.856C138.858 113.65 138.835 113.433 138.857 113.218C138.879 113.003 138.945 112.795 139.051 112.607L141.676 107.904C141.783 107.716 141.926 107.55 142.097 107.418C142.268 107.285 142.464 107.188 142.673 107.132C142.879 107.067 143.097 107.045 143.312 107.07C143.528 107.094 143.735 107.163 143.922 107.273L148.512 109.827Z" fill="black"/>
</g>
<path d="M64.4302 129.858C64.6171 129.682 64.8378 129.545 65.079 129.455C65.3203 129.366 65.577 129.326 65.8339 129.339C66.0974 129.342 66.3574 129.399 66.5985 129.505C66.8397 129.611 67.057 129.765 67.2376 129.957L71.5611 134.645C71.7389 134.836 71.8772 135.061 71.9679 135.306C72.0586 135.551 72.0999 135.811 72.0895 136.072C72.079 136.333 72.017 136.589 71.9071 136.826C71.7971 137.063 71.6413 137.276 71.4488 137.452L66.8727 141.663C66.6814 141.841 66.4569 141.98 66.2119 142.07C65.967 142.161 65.7066 142.202 65.4456 142.192C65.1846 142.181 64.9283 142.119 64.6914 142.009C64.4545 141.9 64.2417 141.744 64.0653 141.551L59.7418 136.863C59.5622 136.672 59.4224 136.448 59.3306 136.203C59.2389 135.958 59.197 135.697 59.2075 135.435C59.2179 135.174 59.2805 134.917 59.3916 134.68C59.5026 134.443 59.6599 134.231 59.8541 134.055L64.4302 129.858ZM34.3909 101.574C36.0323 100.04 37.8854 98.749 39.8934 97.7414C41.8002 96.7777 43.8629 96.1599 45.9855 95.9166C48.0231 95.6917 50.0853 95.9022 52.0355 96.5342C54.1074 97.2414 55.96 98.4749 57.4117 100.114C58.6264 101.348 59.581 102.813 60.2191 104.423C60.7339 105.835 61.0366 107.316 61.1175 108.817C61.1976 110.278 61.1506 111.743 60.9771 113.196C60.7946 114.6 60.6262 116.004 60.4718 117.309C60.3194 118.538 60.2772 119.778 60.3454 121.015C60.3921 122.126 60.7522 123.202 61.3842 124.117C61.6562 124.537 61.8113 125.021 61.8334 125.521C61.8456 125.767 61.8013 126.012 61.704 126.239C61.6067 126.465 61.4589 126.666 61.2719 126.826L57.2292 130.574C56.8458 130.922 56.3429 131.108 55.8255 131.094C55.5688 131.103 55.3137 131.051 55.0816 130.941C54.8495 130.831 54.6472 130.666 54.492 130.462C53.3689 129.156 52.5192 127.638 51.9934 125.998C51.5537 124.525 51.3084 123.001 51.2634 121.464C51.2196 119.981 51.3041 118.497 51.5161 117.028C51.7267 115.625 51.8951 114.221 52.0355 112.958C52.1612 111.796 52.1612 110.624 52.0355 109.462C51.9439 108.462 51.5245 107.519 50.8423 106.781C50.2488 106.124 49.5042 105.62 48.6727 105.315C47.8413 105.009 46.9479 104.91 46.0697 105.027C43.9038 105.307 41.8907 106.294 40.3426 107.834C37.3293 110.642 36.5011 114.202 37.858 118.516C38.0245 118.966 38.11 119.441 38.1107 119.92C38.0759 120.156 37.9948 120.383 37.8719 120.588C37.7491 120.793 37.5869 120.971 37.3948 121.113L33.0854 125.1C32.7843 125.391 32.3811 125.552 31.9625 125.549C31.748 125.545 31.5369 125.496 31.3432 125.404C31.1495 125.312 30.9777 125.179 30.8395 125.015C29.6462 123.635 28.8121 121.981 28.4111 120.201C27.9348 118.164 27.8254 116.058 28.0882 113.982C28.3765 111.707 29.0306 109.493 30.0253 107.427C31.0848 105.21 32.5678 103.221 34.3909 101.574Z" fill="#458FF6"/>
<g opacity="0.6">
<path opacity="0.6" d="M64.4302 129.858C64.6171 129.682 64.8378 129.545 65.079 129.455C65.3203 129.366 65.577 129.326 65.8339 129.339C66.0974 129.342 66.3574 129.399 66.5985 129.505C66.8397 129.611 67.057 129.765 67.2376 129.957L71.5611 134.645C71.7389 134.836 71.8772 135.061 71.9679 135.306C72.0586 135.551 72.0999 135.811 72.0895 136.072C72.079 136.333 72.017 136.589 71.9071 136.826C71.7971 137.063 71.6413 137.276 71.4488 137.452L66.8727 141.663C66.6814 141.841 66.4569 141.98 66.2119 142.07C65.967 142.161 65.7066 142.202 65.4456 142.192C65.1846 142.181 64.9283 142.119 64.6914 142.009C64.4545 141.9 64.2417 141.744 64.0653 141.551L59.7418 136.863C59.5622 136.672 59.4224 136.448 59.3306 136.203C59.2389 135.958 59.197 135.697 59.2075 135.435C59.2179 135.174 59.2805 134.917 59.3916 134.68C59.5026 134.443 59.6599 134.231 59.8541 134.055L64.4302 129.858ZM34.3909 101.574C36.0323 100.04 37.8854 98.749 39.8934 97.7414C41.8002 96.7777 43.8629 96.1599 45.9855 95.9166C48.0231 95.6917 50.0853 95.9022 52.0355 96.5342C54.1074 97.2414 55.96 98.4749 57.4117 100.114C58.6264 101.348 59.581 102.813 60.2191 104.423C60.7339 105.835 61.0366 107.316 61.1175 108.817C61.1976 110.278 61.1506 111.743 60.9771 113.196C60.7946 114.6 60.6262 116.004 60.4718 117.309C60.3194 118.538 60.2772 119.778 60.3454 121.015C60.3921 122.126 60.7522 123.202 61.3842 124.117C61.6562 124.537 61.8113 125.021 61.8334 125.521C61.8456 125.767 61.8013 126.012 61.704 126.239C61.6067 126.465 61.4589 126.666 61.2719 126.826L57.2292 130.574C56.8458 130.922 56.3429 131.108 55.8255 131.094C55.5688 131.103 55.3137 131.051 55.0816 130.941C54.8495 130.831 54.6472 130.666 54.492 130.462C53.3689 129.156 52.5192 127.638 51.9934 125.998C51.5537 124.525 51.3084 123.001 51.2634 121.464C51.2196 119.981 51.3041 118.497 51.5161 117.028C51.7267 115.625 51.8951 114.221 52.0355 112.958C52.1612 111.796 52.1612 110.624 52.0355 109.462C51.9439 108.462 51.5245 107.519 50.8423 106.781C50.2488 106.124 49.5042 105.62 48.6727 105.315C47.8413 105.009 46.9479 104.91 46.0697 105.027C43.9038 105.307 41.8907 106.294 40.3426 107.834C37.3293 110.642 36.5011 114.202 37.858 118.516C38.0245 118.966 38.11 119.441 38.1107 119.92C38.0759 120.156 37.9948 120.383 37.8719 120.588C37.7491 120.793 37.5869 120.971 37.3948 121.113L33.0854 125.1C32.7843 125.391 32.3811 125.552 31.9625 125.549C31.748 125.545 31.5369 125.496 31.3432 125.404C31.1495 125.312 30.9777 125.179 30.8395 125.015C29.6462 123.635 28.8121 121.981 28.4111 120.201C27.9348 118.164 27.8254 116.058 28.0882 113.982C28.3765 111.707 29.0306 109.493 30.0253 107.427C31.0848 105.21 32.5678 103.221 34.3909 101.574Z" fill="white"/>
</g>
<path d="M353.533 31.0332V62.0665C353.533 64.8195 354.174 67.5348 355.405 69.9971C356.637 72.4595 358.424 74.6014 360.627 76.2532L371.267 84.2332C376.773 88.3627 381.242 93.7175 384.32 99.8734C387.398 106.029 389 112.817 389 119.7V239.4C389 248.806 385.263 257.827 378.612 264.479C371.961 271.13 362.94 274.867 353.533 274.867H291.467C282.06 274.867 273.039 271.13 266.388 264.479C259.737 257.827 256 248.806 256 239.4V119.7C256 112.817 257.602 106.029 260.68 99.8734C263.758 93.7175 268.227 88.3627 273.733 84.2332L284.373 76.2532C286.576 74.6014 288.363 72.4595 289.595 69.9971C290.826 67.5348 291.467 64.8195 291.467 62.0665V31.0332H353.533Z" fill="url(#paint0_linear)"/>
<path d="M353.533 31.0332H291.467V62.0665C291.467 64.8195 290.826 67.5348 289.595 69.9971C288.363 72.4595 286.576 74.6014 284.373 76.2532L273.733 84.2332C268.227 88.3627 263.758 93.7175 260.68 99.8734C257.602 106.029 256 112.817 256 119.7V239.4C256 248.806 259.737 257.827 266.388 264.479C273.039 271.13 282.06 274.867 291.467 274.867H322.5C313.094 274.867 304.073 271.13 297.421 264.479C290.77 257.827 287.033 248.806 287.033 239.4V119.7C287.033 112.817 288.636 106.029 291.714 99.8734C294.792 93.7175 299.261 88.3627 304.767 84.2332L315.407 76.2532C317.609 74.6014 319.397 72.4595 320.628 69.9971C321.859 67.5348 322.5 64.8195 322.5 62.0665C322.5 57.3634 324.368 52.8528 327.694 49.5272C331.02 46.2015 335.53 44.3332 340.233 44.3332H353.533V31.0332Z" fill="url(#paint1_linear)"/>
<path d="M389 119.7V239.4C389 248.806 385.263 257.827 378.612 264.479C371.961 271.13 362.94 274.867 353.533 274.867H291.467C282.06 274.867 273.039 271.13 266.388 264.479C259.737 257.827 256 248.806 256 239.4V119.7C255.998 112.817 257.599 106.028 260.677 99.872C263.755 93.7157 268.226 88.3612 273.733 84.2334H371.267C376.774 88.3612 381.245 93.7157 384.323 99.872C387.401 106.028 389.002 112.817 389 119.7Z" fill="#5B9BF3"/>
<path d="M322.5 274.867H291.467C282.06 274.867 273.039 271.13 266.388 264.479C259.737 257.827 256 248.806 256 239.4V119.7C255.998 112.817 257.599 106.028 260.677 99.872C263.755 93.7157 268.226 88.3612 273.733 84.2334H304.767C299.259 88.3612 294.789 93.7157 291.71 99.872C288.632 106.028 287.031 112.817 287.033 119.7V239.4C287.033 248.806 290.77 257.827 297.421 264.479C304.073 271.13 313.094 274.867 322.5 274.867Z" fill="#458FF6"/>
<path d="M389 124.133H256V239.4H389V124.133Z" fill="url(#paint2_linear)"/>
<path d="M287.033 124.133H256V239.4H287.033V124.133Z" fill="url(#paint3_linear)"/>
<path d="M362.4 208.367C361.224 208.367 360.097 207.9 359.265 207.068C358.434 206.237 357.967 205.109 357.967 203.933V141.867C357.967 140.691 358.434 139.563 359.265 138.732C360.097 137.9 361.224 137.433 362.4 137.433C363.576 137.433 364.703 137.9 365.535 138.732C366.366 139.563 366.833 140.691 366.833 141.867V203.933C366.833 205.109 366.366 206.237 365.535 207.068C364.703 207.9 363.576 208.367 362.4 208.367Z" fill="url(#paint4_linear)"/>
<path d="M362.4 226.1C364.848 226.1 366.833 224.115 366.833 221.666C366.833 219.218 364.848 217.233 362.4 217.233C359.952 217.233 357.967 219.218 357.967 221.666C357.967 224.115 359.952 226.1 362.4 226.1Z" fill="url(#paint5_linear)"/>
<path d="M357.967 0H287.033C282.136 0 278.167 3.96974 278.167 8.86667V26.6C278.167 31.4969 282.136 35.4667 287.033 35.4667H357.967C362.864 35.4667 366.833 31.4969 366.833 26.6V8.86667C366.833 3.96974 362.864 0 357.967 0Z" fill="#458FF6"/>
<path d="M366.833 26.6C366.826 28.9494 365.89 31.2006 364.229 32.8619C362.567 34.5232 360.316 35.4596 357.967 35.4667H287.033C284.682 35.4667 282.426 34.5325 280.764 32.8697C279.101 31.2069 278.167 28.9516 278.167 26.6V8.86667C278.167 6.51508 279.101 4.25981 280.764 2.59699C282.426 0.934164 284.682 0 287.033 0H313.633C313.633 7.05476 316.436 13.8206 321.424 18.809C326.413 23.7975 333.179 26.6 340.233 26.6H366.833Z" fill="url(#paint6_linear)"/>
<path d="M295.9 22.1665C298.348 22.1665 300.333 20.1816 300.333 17.7331C300.333 15.2847 298.348 13.2998 295.9 13.2998C293.452 13.2998 291.467 15.2847 291.467 17.7331C291.467 20.1816 293.452 22.1665 295.9 22.1665Z" fill="url(#paint7_linear)"/>
<path d="M362.392 101.842C362.594 96.6434 357.76 92.2344 351.594 91.9946C345.429 91.7549 340.267 95.7752 340.064 100.974C339.862 106.173 344.696 110.582 350.862 110.822C357.027 111.062 362.189 107.042 362.392 101.842Z" fill="url(#paint8_linear)"/>
<path d="M317.645 253.953C317.762 250.955 314.974 248.414 311.419 248.276C307.864 248.137 304.888 250.455 304.771 253.452C304.655 256.449 307.442 258.991 310.997 259.129C314.552 259.267 317.528 256.95 317.645 253.953Z" fill="url(#paint9_linear)"/>
<path d="M379.712 110.081C379.828 107.084 377.041 104.543 373.486 104.404C369.931 104.266 366.955 106.584 366.838 109.581C366.722 112.578 369.509 115.12 373.064 115.258C376.619 115.396 379.595 113.079 379.712 110.081Z" fill="url(#paint10_linear)"/>
<defs>
<linearGradient id="paint0_linear" x1="260.677" y1="152.95" x2="352.855" y2="152.95" gradientUnits="userSpaceOnUse">
<stop stop-color="#FCE9C9"/>
<stop offset="1" stop-color="#FEF4E8"/>
</linearGradient>
<linearGradient id="paint1_linear" x1="307.444" y1="152.95" x2="368.647" y2="152.95" gradientUnits="userSpaceOnUse">
<stop stop-color="#F2C7A5"/>
<stop offset="1" stop-color="#FEF4E8"/>
</linearGradient>
<linearGradient id="paint2_linear" x1="256" y1="124.133" x2="378.615" y2="268.529" gradientUnits="userSpaceOnUse">
<stop stop-color="#6CBCFC"/>
<stop offset="1" stop-color="#458FFC"/>
</linearGradient>
<linearGradient id="paint3_linear" x1="256" y1="124.133" x2="319.493" y2="141.58" gradientUnits="userSpaceOnUse">
<stop stop-color="#6CBCFC"/>
<stop offset="1" stop-color="#458FFC"/>
</linearGradient>
<linearGradient id="paint4_linear" x1="712.633" y1="2974.77" x2="730.367" y2="2974.77" gradientUnits="userSpaceOnUse">
<stop stop-color="#FCE9C9"/>
<stop offset="1" stop-color="#FEF4E8"/>
</linearGradient>
<linearGradient id="paint5_linear" x1="712.633" y1="669.433" x2="730.367" y2="669.433" gradientUnits="userSpaceOnUse">
<stop stop-color="#FCE9C9"/>
<stop offset="1" stop-color="#FEF4E8"/>
</linearGradient>
<linearGradient id="paint6_linear" x1="278.167" y1="0" x2="304.145" y2="66.2849" gradientUnits="userSpaceOnUse">
<stop stop-color="#6CBCFC"/>
<stop offset="1" stop-color="#458FFC"/>
</linearGradient>
<linearGradient id="paint7_linear" x1="513.133" y1="57.6331" x2="530.867" y2="57.6331" gradientUnits="userSpaceOnUse">
<stop stop-color="#FCE9C9"/>
<stop offset="1" stop-color="#FEF4E8"/>
</linearGradient>
<linearGradient id="paint8_linear" x1="1019.37" y1="623.677" x2="1114.32" y2="623.677" gradientUnits="userSpaceOnUse">
<stop stop-color="#FCE9C9"/>
<stop offset="1" stop-color="#FEF4E8"/>
</linearGradient>
<linearGradient id="paint9_linear" x1="609.904" y1="997.401" x2="641.468" y2="997.401" gradientUnits="userSpaceOnUse">
<stop stop-color="#FCE9C9"/>
<stop offset="1" stop-color="#FEF4E8"/>
</linearGradient>
<linearGradient id="paint10_linear" x1="824.034" y1="435.443" x2="855.598" y2="435.443" gradientUnits="userSpaceOnUse">
<stop stop-color="#FCE9C9"/>
<stop offset="1" stop-color="#FEF4E8"/>
</linearGradient>
</defs>
</svg>
