<svg width="50" height="60" viewBox="0 0 50 60" fill="none" xmlns="http://www.w3.org/2000/svg">
<path d="M49.1654 57.3287C48.8703 57.618 48.4735 57.78 48.0602 57.78C47.647 57.78 47.2502 57.618 46.955 57.3287C46.7971 57.1076 42.3764 52.8921 42.4869 52.7026C40.4979 54.2217 38.0488 55.0142 35.5469 54.9481C33.045 54.882 30.6411 53.9615 28.7351 52.3395C25.9089 56.0972 23.7617 58.6549 23.4933 59.018C23.3451 59.1914 23.1611 59.3305 22.9539 59.4259C22.7468 59.5214 22.5214 59.5708 22.2934 59.5708C22.0653 59.5708 21.84 59.5214 21.6328 59.4259C21.4257 59.3305 21.2417 59.1914 21.0934 59.018C20.2567 57.9918 0.363129 34.0406 0.363129 22.3571C0.367311 16.5421 2.67916 10.9665 6.79097 6.85471C10.9028 2.74289 16.4784 0.431049 22.2934 0.426868C26.2201 0.408718 30.0781 1.45672 33.4559 3.45911C36.8337 5.46149 39.6047 8.34316 41.4733 11.7968C43.3419 15.2504 44.2381 19.1465 44.0663 23.0694C43.8944 26.9924 42.661 30.7952 40.4975 34.0722C41.9665 34.7813 43.2603 35.8067 44.286 37.0749C45.3118 38.3431 46.0442 39.8226 46.4305 41.4074C46.8169 42.9921 46.8477 44.6426 46.5207 46.2407C46.1938 47.8387 45.5171 49.3445 44.5394 50.6501C44.7131 50.5238 48.9602 54.9762 49.1654 55.1183C49.4547 55.4134 49.6167 55.8102 49.6167 56.2235C49.6167 56.6367 49.4547 57.0335 49.1654 57.3287Z" fill="url(#paint0_linear)"/>
<path d="M30.6771 20.9835C30.3297 9.83684 14.1781 9.93157 13.8149 20.9835C14.1781 32.0986 30.3297 32.0986 30.6771 20.9835ZM22.246 26.2411C20.8994 26.1673 19.6322 25.5804 18.705 24.601C17.7778 23.6217 17.2611 22.3243 17.2611 20.9756C17.2611 19.627 17.7778 18.3296 18.705 17.3502C19.6322 16.3708 20.8994 15.7839 22.246 15.7102C23.5926 15.7839 24.8598 16.3708 25.787 17.3502C26.7142 18.3296 27.2309 19.627 27.2309 20.9756C27.2309 22.3243 26.7142 23.6217 25.787 24.601C24.8598 25.5804 23.5926 26.1673 22.246 26.2411Z" fill="#4089ED"/>
<path d="M49.497 55.4814C49.2759 55.3077 45.0288 50.8554 44.7604 50.9501C45.7592 49.6333 46.4544 48.1119 46.7963 46.4949C47.1382 44.878 47.1183 43.2054 46.7381 41.597C46.3579 39.9886 45.6267 38.4842 44.597 37.1915C43.5672 35.8988 42.2644 34.8498 40.7817 34.1195C42.9756 30.7903 44.2239 26.9277 44.3932 22.9442C44.5626 18.9608 43.6468 15.0061 41.7434 11.5027C39.8401 7.99922 37.0209 5.0786 33.5869 3.05276C30.1528 1.02692 26.233 -0.0280399 22.246 0.000566678C16.3473 0.00474869 10.6914 2.34986 6.52032 6.52089C2.34929 10.6919 0.00418201 16.3479 0 22.2466C0 34.088 20.2567 58.4181 21.0303 59.4285C21.1784 59.6073 21.3642 59.7512 21.5743 59.85C21.7845 59.9488 22.0138 60 22.246 60C22.4782 60 22.7075 59.9488 22.9177 59.85C23.1278 59.7512 23.3136 59.6073 23.4617 59.4285C23.7301 59.1128 25.9089 56.4919 28.7667 52.671C30.7064 54.3132 33.1485 55.2443 35.6892 55.3103C38.2299 55.3764 40.7171 54.5734 42.7395 53.0342C42.5974 53.1921 47.1445 57.5497 47.2708 57.7707C47.5744 58.0659 47.9828 58.2285 48.4062 58.2225C48.8296 58.2166 49.2334 58.0427 49.5286 57.7392C49.8238 57.4356 49.9863 57.0271 49.9804 56.6037C49.9745 56.1803 49.8006 55.7766 49.497 55.4814ZM22.246 55.9077C17.8726 50.5238 3.1577 31.4039 3.1577 22.2466C3.1577 17.184 5.16879 12.3289 8.74854 8.7491C12.3283 5.16935 17.1835 3.15827 22.246 3.15827C27.3085 3.15827 32.1637 5.16935 35.7435 8.7491C39.3232 12.3289 41.3343 17.184 41.3343 22.2466C41.3343 25.1517 39.866 29.0356 37.703 33.1722C28.3562 31.5934 21.3461 42.4085 26.651 50.2396C24.8195 52.6553 23.2565 54.6446 22.246 55.9077ZM36.0452 52.1816C25.53 51.7553 25.4827 36.551 36.0452 36.1878C46.4814 36.6457 46.5761 51.7869 36.0452 52.1816Z" fill="#4089ED"/>
<defs>
<linearGradient id="paint0_linear" x1="0.363129" y1="0.426636" x2="63.2871" y2="53.9085" gradientUnits="userSpaceOnUse">
<stop stop-color="#6CBCFC"/>
<stop offset="1" stop-color="#458FFC"/>
</linearGradient>
</defs>
</svg>
