<svg width="60" height="60" viewBox="0 0 60 60" fill="none" xmlns="http://www.w3.org/2000/svg">
<path d="M59.3519 13.0153L56.2568 9.9202L50.0536 3.71475L46.9519 0.61531C46.5385 0.216026 45.9848 -0.00491135 45.4101 8.2862e-05C44.8354 0.00507708 44.2856 0.235604 43.8792 0.642012C43.4728 1.04842 43.2423 1.59819 43.2373 2.17292C43.2323 2.74764 43.4532 3.30134 43.8525 3.71475L45.4044 5.26666L39.2034 11.4655L34.552 6.81419C34.1386 6.4149 33.5849 6.19396 33.0102 6.19896C32.4354 6.20395 31.8857 6.43448 31.4793 6.84089C31.0729 7.24729 30.8423 7.79707 30.8373 8.37179C30.8323 8.94652 31.0533 9.50021 31.4526 9.91362L34.5542 13.0153L11.304 36.2654C9.92495 37.6327 9.04435 39.4231 8.80313 41.35C8.56191 43.277 8.97402 45.2292 9.97351 46.8942L0.609439 56.2583C0.314225 56.5691 0.115461 56.9588 0.0372278 57.3802C-0.0410053 57.8016 0.00465067 58.2367 0.168663 58.6326C0.332676 59.0286 0.608007 59.3686 0.961299 59.6113C1.31459 59.854 1.73068 59.989 2.15916 60C2.74046 59.9999 3.2979 59.7689 3.70888 59.3578L13.0729 49.9937C14.738 50.9932 16.6902 51.4053 18.6172 51.1641C20.5441 50.9228 22.3345 50.0422 23.7018 48.6632L46.9519 25.413L50.0536 28.5146C50.4646 28.9257 51.022 29.1568 51.6033 29.1569C52.0318 29.1459 52.4479 29.0108 52.8012 28.7681C53.1544 28.5255 53.4298 28.1855 53.5938 27.7895C53.7578 27.3935 53.8035 26.9585 53.7252 26.537C53.647 26.1156 53.4482 25.7259 53.153 25.4152L48.5017 20.7638L54.7005 14.565L56.2524 16.1169C56.6634 16.528 57.2209 16.759 57.8022 16.7591C58.2311 16.7485 58.6477 16.6136 59.0014 16.3708C59.3551 16.128 59.6308 15.7877 59.7949 15.3913C59.959 14.9949 60.0045 14.5593 59.9258 14.1376C59.8472 13.7158 59.6478 13.3259 59.3519 13.0153ZM40.7838 25.3823L39.4225 24.0211C39.0091 23.6218 38.4554 23.4009 37.8807 23.4059C37.306 23.4109 36.7562 23.6414 36.3498 24.0478C35.9434 24.4542 35.7129 25.004 35.7079 25.5787C35.7029 26.1534 35.9238 26.7071 36.3231 27.1205L37.6843 28.4818L34.2079 31.9582L32.8467 30.597C32.4332 30.1977 31.8796 29.9768 31.3048 29.9818C30.7301 29.9868 30.1803 30.2173 29.7739 30.6237C29.3675 31.0301 29.137 31.5799 29.132 32.1546C29.127 32.7293 29.3479 33.283 29.7472 33.6964L31.1084 35.0576L27.632 38.5341L26.2708 37.1729C25.8574 36.7736 25.3037 36.5527 24.7289 36.5577C24.1542 36.5627 23.6044 36.7932 23.198 37.1996C22.7916 37.606 22.5611 38.1558 22.5561 38.7305C22.5511 39.3052 22.772 39.8589 23.1713 40.2723L24.5325 41.6335L20.6023 45.5637C19.7675 46.3612 18.6574 46.8063 17.5029 46.8063C16.3484 46.8063 15.2383 46.3612 14.4035 45.5637C13.5816 44.7416 13.1199 43.6267 13.1199 42.4643C13.1199 41.3018 13.5816 40.187 14.4035 39.3649L37.6514 16.1147L43.8503 22.3136L40.7838 25.3823ZM45.4022 17.6644L42.3028 14.565L48.5017 8.3661L51.6011 11.4655L45.4022 17.6644Z" fill="url(#paint0_linear)"/>
<defs>
<linearGradient id="paint0_linear" x1="0" y1="0" x2="64.6675" y2="65.9605" gradientUnits="userSpaceOnUse">
<stop stop-color="#6CBCFC"/>
<stop offset="1" stop-color="#458FFC"/>
</linearGradient>
</defs>
</svg>
