<svg width="30" height="60" viewBox="0 0 30 60" fill="none" xmlns="http://www.w3.org/2000/svg">
<path d="M21.2903 6.77417V13.5484C21.2903 14.1493 21.4302 14.742 21.699 15.2795C21.9677 15.817 22.358 16.2846 22.8387 16.6451L25.1613 18.3871C26.3632 19.2885 27.3387 20.4574 28.0106 21.8011C28.6825 23.1449 29.0323 24.6266 29.0323 26.129V52.258C29.0323 54.3113 28.2166 56.2805 26.7647 57.7324C25.3128 59.1843 23.3436 60 21.2903 60H7.74194C5.68865 60 3.71945 59.1843 2.26756 57.7324C0.815666 56.2805 0 54.3113 0 52.258V26.129C0 24.6266 0.349792 23.1449 1.02167 21.8011C1.69355 20.4574 2.66907 19.2885 3.87097 18.3871L6.19355 16.6451C6.67431 16.2846 7.06451 15.817 7.33327 15.2795C7.60202 14.742 7.74194 14.1493 7.74194 13.5484V6.77417H21.2903Z" fill="url(#paint0_linear)"/>
<path d="M21.2903 6.77417H7.74194V13.5484C7.74194 14.1493 7.60202 14.742 7.33327 15.2795C7.06451 15.817 6.67431 16.2846 6.19355 16.6451L3.87097 18.3871C2.66907 19.2885 1.69355 20.4574 1.02167 21.8011C0.349792 23.1449 0 24.6266 0 26.129V52.258C0 54.3113 0.815666 56.2805 2.26756 57.7324C3.71945 59.1843 5.68865 60 7.74194 60H14.5161C12.4628 60 10.4936 59.1843 9.04175 57.7324C7.58986 56.2805 6.77419 54.3113 6.77419 52.258V26.129C6.77419 24.6266 7.12399 23.1449 7.79587 21.8011C8.46775 20.4574 9.44326 19.2885 10.6452 18.3871L12.9677 16.6451C13.4485 16.2846 13.8387 15.817 14.1075 15.2795C14.3762 14.742 14.5161 14.1493 14.5161 13.5484C14.5161 12.5217 14.924 11.5371 15.6499 10.8112C16.3759 10.0852 17.3605 9.6774 18.3871 9.6774H21.2903V6.77417Z" fill="url(#paint1_linear)"/>
<path d="M29.0323 26.129V52.2581C29.0323 54.3113 28.2166 56.2805 26.7647 57.7324C25.3128 59.1843 23.3436 60 21.2903 60H7.74194C5.68865 60 3.71946 59.1843 2.26756 57.7324C0.815666 56.2805 5.93366e-07 54.3113 5.93366e-07 52.2581V26.129C-0.000525684 24.6266 0.349035 23.1446 1.02096 21.8008C1.69288 20.4569 2.66868 19.2881 3.87097 18.3871H25.1613C26.3636 19.2881 27.3394 20.4569 28.0113 21.8008C28.6832 23.1446 29.0328 24.6266 29.0323 26.129Z" fill="#5B9BF3"/>
<path d="M14.5161 60H7.74194C5.68865 60 3.71946 59.1843 2.26756 57.7324C0.815666 56.2805 5.93366e-07 54.3113 5.93366e-07 52.2581V26.129C-0.000525684 24.6266 0.349035 23.1446 1.02096 21.8008C1.69288 20.4569 2.66868 19.2881 3.87097 18.3871H10.6452C9.44287 19.2881 8.46707 20.4569 7.79515 21.8008C7.12323 23.1446 6.77367 24.6266 6.77419 26.129V52.2581C6.77419 54.3113 7.58986 56.2805 9.04175 57.7324C10.4936 59.1843 12.4628 60 14.5161 60Z" fill="#458FF6"/>
<path d="M29.0323 27.0968H0V52.2581H29.0323V27.0968Z" fill="url(#paint2_linear)"/>
<path d="M6.77419 27.0968H0V52.2581H6.77419V27.0968Z" fill="url(#paint3_linear)"/>
<path d="M23.2258 45.4839C22.9691 45.4839 22.723 45.3819 22.5415 45.2004C22.36 45.0189 22.2581 44.7728 22.2581 44.5161V30.9677C22.2581 30.7111 22.36 30.4649 22.5415 30.2834C22.723 30.102 22.9691 30 23.2258 30C23.4825 30 23.7286 30.102 23.9101 30.2834C24.0916 30.4649 24.1935 30.7111 24.1935 30.9677V44.5161C24.1935 44.7728 24.0916 45.0189 23.9101 45.2004C23.7286 45.3819 23.4825 45.4839 23.2258 45.4839Z" fill="url(#paint4_linear)"/>
<path d="M23.2258 49.3549C23.7603 49.3549 24.1935 48.9216 24.1935 48.3871C24.1935 47.8526 23.7603 47.4194 23.2258 47.4194C22.6913 47.4194 22.2581 47.8526 22.2581 48.3871C22.2581 48.9216 22.6913 49.3549 23.2258 49.3549Z" fill="url(#paint5_linear)"/>
<path d="M22.2581 0H6.7742C5.70526 0 4.83871 0.866546 4.83871 1.93548V5.80645C4.83871 6.87539 5.70526 7.74194 6.7742 7.74194H22.2581C23.327 7.74194 24.1936 6.87539 24.1936 5.80645V1.93548C24.1936 0.866546 23.327 0 22.2581 0Z" fill="#458FF6"/>
<path d="M24.1936 5.80645C24.192 6.3193 23.9876 6.81071 23.625 7.17335C23.2623 7.536 22.7709 7.7404 22.2581 7.74194H6.7742C6.26088 7.74194 5.76858 7.53802 5.40561 7.17505C5.04263 6.81207 4.83871 6.31977 4.83871 5.80645V1.93548C4.83871 1.42216 5.04263 0.929864 5.40561 0.56689C5.76858 0.203916 6.26088 0 6.7742 0H12.5807C12.5807 1.53997 13.1924 3.01686 14.2813 4.10578C15.3702 5.1947 16.8471 5.80645 18.3871 5.80645H24.1936Z" fill="url(#paint6_linear)"/>
<path d="M8.70969 4.83868C9.24415 4.83868 9.67743 4.40541 9.67743 3.87094C9.67743 3.33647 9.24415 2.9032 8.70969 2.9032C8.17522 2.9032 7.74194 3.33647 7.74194 3.87094C7.74194 4.40541 8.17522 4.83868 8.70969 4.83868Z" fill="url(#paint7_linear)"/>
<path d="M23.224 22.2309C23.2681 21.096 22.2129 20.1336 20.867 20.0812C19.5212 20.0289 18.3944 20.9065 18.3502 22.0414C18.3061 23.1762 19.3613 24.1387 20.7072 24.191C22.053 24.2434 23.1798 23.3658 23.224 22.2309Z" fill="url(#paint8_linear)"/>
<path d="M13.4564 55.4346C13.4818 54.7804 12.8734 54.2256 12.0974 54.1954C11.3214 54.1652 10.6717 54.6711 10.6462 55.3254C10.6208 55.9796 11.2292 56.5344 12.0052 56.5646C12.7812 56.5948 13.4309 56.0889 13.4564 55.4346Z" fill="url(#paint9_linear)"/>
<path d="M27.0047 24.0295C27.0302 23.3753 26.4217 22.8204 25.6457 22.7903C24.8697 22.7601 24.22 23.266 24.1946 23.9202C24.1692 24.5744 24.7776 25.1293 25.5536 25.1594C26.3296 25.1896 26.9793 24.6837 27.0047 24.0295Z" fill="url(#paint10_linear)"/>
<defs>
<linearGradient id="paint0_linear" x1="1.02097" y1="33.3871" x2="21.1423" y2="33.3871" gradientUnits="userSpaceOnUse">
<stop stop-color="#FCE9C9"/>
<stop offset="1" stop-color="#FEF4E8"/>
</linearGradient>
<linearGradient id="paint1_linear" x1="11.2297" y1="33.3871" x2="24.5894" y2="33.3871" gradientUnits="userSpaceOnUse">
<stop stop-color="#F2C7A5"/>
<stop offset="1" stop-color="#FEF4E8"/>
</linearGradient>
<linearGradient id="paint2_linear" x1="0" y1="27.0968" x2="26.7653" y2="58.6166" gradientUnits="userSpaceOnUse">
<stop stop-color="#6CBCFC"/>
<stop offset="1" stop-color="#458FFC"/>
</linearGradient>
<linearGradient id="paint3_linear" x1="0" y1="27.0968" x2="13.8598" y2="30.9052" gradientUnits="userSpaceOnUse">
<stop stop-color="#6CBCFC"/>
<stop offset="1" stop-color="#458FFC"/>
</linearGradient>
<linearGradient id="paint4_linear" x1="99.6774" y1="649.355" x2="103.548" y2="649.355" gradientUnits="userSpaceOnUse">
<stop stop-color="#FCE9C9"/>
<stop offset="1" stop-color="#FEF4E8"/>
</linearGradient>
<linearGradient id="paint5_linear" x1="99.6774" y1="146.129" x2="103.548" y2="146.129" gradientUnits="userSpaceOnUse">
<stop stop-color="#FCE9C9"/>
<stop offset="1" stop-color="#FEF4E8"/>
</linearGradient>
<linearGradient id="paint6_linear" x1="4.83871" y1="0" x2="10.5095" y2="14.4692" gradientUnits="userSpaceOnUse">
<stop stop-color="#6CBCFC"/>
<stop offset="1" stop-color="#458FFC"/>
</linearGradient>
<linearGradient id="paint7_linear" x1="56.129" y1="12.5806" x2="60" y2="12.5806" gradientUnits="userSpaceOnUse">
<stop stop-color="#FCE9C9"/>
<stop offset="1" stop-color="#FEF4E8"/>
</linearGradient>
<linearGradient id="paint8_linear" x1="166.635" y1="136.141" x2="187.36" y2="136.141" gradientUnits="userSpaceOnUse">
<stop stop-color="#FCE9C9"/>
<stop offset="1" stop-color="#FEF4E8"/>
</linearGradient>
<linearGradient id="paint9_linear" x1="77.253" y1="217.72" x2="84.143" y2="217.72" gradientUnits="userSpaceOnUse">
<stop stop-color="#FCE9C9"/>
<stop offset="1" stop-color="#FEF4E8"/>
</linearGradient>
<linearGradient id="paint10_linear" x1="123.995" y1="95.0519" x2="130.885" y2="95.0519" gradientUnits="userSpaceOnUse">
<stop stop-color="#FCE9C9"/>
<stop offset="1" stop-color="#FEF4E8"/>
</linearGradient>
</defs>
</svg>
