<svg width="52" height="60" viewBox="0 0 52 60" fill="none" xmlns="http://www.w3.org/2000/svg">
<path d="M33.6579 26.3422C34.0596 26.744 34.2853 27.2889 34.2853 27.8572C34.2853 28.4254 34.0596 28.9703 33.6579 29.3722L22.9436 40.0864C22.5417 40.4882 21.9968 40.7138 21.4286 40.7138C20.8604 40.7138 20.3154 40.4882 19.9136 40.0864L13.485 33.6579C13.0947 33.2537 12.8787 32.7124 12.8836 32.1506C12.8885 31.5887 13.1138 31.0513 13.5111 30.654C13.9084 30.2567 14.4459 30.0313 15.0077 30.0264C15.5696 30.0215 16.1109 30.2375 16.515 30.6279L21.4286 35.5414L30.6279 26.3422C31.0297 25.9404 31.5747 25.7148 32.1429 25.7148C32.7111 25.7148 33.256 25.9404 33.6579 26.3422ZM51.4286 13.9286C51.4288 15.1636 51.0024 16.3607 50.2214 17.3174C49.4404 18.2741 48.3529 18.9316 47.1429 19.1786V53.5714C47.1429 54.1398 46.9171 54.6848 46.5152 55.0867C46.1134 55.4885 45.5683 55.7143 45 55.7143C44.4317 55.7143 43.8866 55.4885 43.4848 55.0867C43.0829 54.6848 42.8571 54.1398 42.8571 53.5714V17.1429C42.8571 16.5746 43.0829 16.0295 43.4848 15.6276C43.8866 15.2258 44.4317 15 45 15H46.0714C46.3556 15 46.6281 14.8871 46.829 14.6862C47.03 14.4853 47.1429 14.2128 47.1429 13.9286C47.1429 13.6444 47.03 13.3719 46.829 13.171C46.6281 12.97 46.3556 12.8572 46.0714 12.8572H36.4286C35.8603 12.8572 35.3152 12.6314 34.9133 12.2295C34.5115 11.8277 34.2857 11.2826 34.2857 10.7143C34.2857 10.146 34.5115 9.60094 34.9133 9.19908C35.3152 8.79722 35.8603 8.57145 36.4286 8.57145H42.8571V6.4286C42.8571 5.86027 42.6314 5.31523 42.2295 4.91337C41.8277 4.5115 41.2826 4.28574 40.7143 4.28574H21.4286C20.8603 4.28574 20.3152 4.5115 19.9134 4.91337C19.5115 5.31523 19.2857 5.86027 19.2857 6.4286V17.1429C19.2857 17.7112 19.06 18.2562 18.6581 18.6581C18.2562 19.06 17.7112 19.2857 17.1429 19.2857H6.42859C5.86027 19.2857 5.31523 19.5115 4.91336 19.9134C4.5115 20.3152 4.28573 20.8603 4.28573 21.4286V53.5714C4.28573 54.1398 4.5115 54.6848 4.91336 55.0867C5.31523 55.4885 5.86027 55.7143 6.42859 55.7143H40.7143C41.2826 55.7143 41.8277 55.9401 42.2295 56.3419C42.6314 56.7438 42.8571 57.2888 42.8571 57.8571C42.8571 58.4255 42.6314 58.9705 42.2295 59.3724C41.8277 59.7742 41.2826 60 40.7143 60H6.42859C4.72363 60 3.0885 59.3227 1.88291 58.1171C0.677315 56.9115 2.10535e-05 55.2764 2.10535e-05 53.5714V18.9193C-0.00214739 18.0748 0.163212 17.2383 0.486529 16.4581C0.809845 15.678 1.2847 14.9697 1.88359 14.3743L14.3722 1.8836C14.9678 1.28444 15.6764 0.809446 16.457 0.486122C17.2375 0.162797 18.0744 -0.00242521 18.9193 2.6899e-05H40.7143C42.4193 2.6899e-05 44.0544 0.677321 45.26 1.88291C46.4656 3.0885 47.1429 4.72363 47.1429 6.4286V8.68074C48.3525 8.92766 49.4398 9.58483 50.2207 10.5411C51.0017 11.4973 51.4283 12.694 51.4286 13.9286ZM15 15V7.31574L7.31573 15H15Z" fill="url(#paint0_linear)"/>
<defs>
<linearGradient id="paint0_linear" x1="0" y1="0" x2="64.106" y2="56.0809" gradientUnits="userSpaceOnUse">
<stop stop-color="#6CBCFC"/>
<stop offset="1" stop-color="#458FFC"/>
</linearGradient>
</defs>
</svg>
