<svg width="179" height="43" viewBox="0 0 179 43" fill="none" xmlns="http://www.w3.org/2000/svg">
<rect y="1" width="41" height="41" rx="5" fill="white"/>
<path d="M23.416 34H17.0176L8.49219 8.63477H14.4336L20.2344 28.5332H20.3574L26.1582 8.63477H31.9414L23.416 34Z" fill="#458FF6"/>
<path d="M63.2773 30H59.0117L53.3281 13.0898H57.2891L61.1562 26.3555H61.2383L65.1055 13.0898H68.9609L63.2773 30ZM73.9062 27.6562C74.7109 27.6562 75.3867 27.4336 75.9336 26.9883C76.4805 26.5352 76.7539 25.9609 76.7539 25.2656V24.3164L74.0469 24.5039C73.3359 24.5508 72.793 24.7109 72.418 24.9844C72.043 25.2578 71.8555 25.6328 71.8555 26.1094C71.8555 26.5859 72.0391 26.9648 72.4062 27.2461C72.7812 27.5195 73.2812 27.6562 73.9062 27.6562ZM72.793 30.1523C71.5352 30.1523 70.4961 29.793 69.6758 29.0742C68.8555 28.3555 68.4453 27.4258 68.4453 26.2852C68.4453 25.1211 68.8789 24.2109 69.7461 23.5547C70.6133 22.8984 71.875 22.5195 73.5312 22.418L76.7539 22.2188V21.3633C76.7539 20.7461 76.5547 20.2734 76.1562 19.9453C75.7578 19.6094 75.2031 19.4414 74.4922 19.4414C73.8828 19.4414 73.3711 19.5898 72.957 19.8867C72.5508 20.1758 72.3047 20.5586 72.2188 21.0352H69.0898C69.1367 19.8008 69.668 18.8008 70.6836 18.0352C71.707 17.2617 73.0234 16.875 74.6328 16.875C76.2891 16.875 77.6172 17.2656 78.6172 18.0469C79.6172 18.8281 80.1172 19.8633 80.1172 21.1523V30H76.8125V28.0078H76.7422C76.3984 28.6719 75.8633 29.1953 75.1367 29.5781C74.418 29.9609 73.6367 30.1523 72.793 30.1523ZM94.0859 21.8555H90.8984C90.8047 21.168 90.5273 20.6172 90.0664 20.2031C89.6055 19.7812 89.0117 19.5703 88.2852 19.5703C87.4023 19.5703 86.7031 19.9258 86.1875 20.6367C85.6719 21.3398 85.4141 22.3086 85.4141 23.543C85.4141 24.793 85.6719 25.7695 86.1875 26.4727C86.7031 27.168 87.4062 27.5156 88.2969 27.5156C89.0234 27.5156 89.6133 27.3242 90.0664 26.9414C90.5195 26.5586 90.8008 26.0156 90.9102 25.3125H94.0977C93.9961 26.8125 93.418 28.0078 92.3633 28.8984C91.3164 29.7812 89.9492 30.2227 88.2617 30.2227C86.3242 30.2227 84.7852 29.625 83.6445 28.4297C82.5117 27.2344 81.9453 25.6055 81.9453 23.543C81.9453 21.5039 82.5117 19.8828 83.6445 18.6797C84.7852 17.4766 86.3164 16.875 88.2383 16.875C89.9414 16.875 91.3203 17.3398 92.375 18.2695C93.4297 19.1992 94 20.3945 94.0859 21.8555ZM107.469 21.8555H104.281C104.188 21.168 103.91 20.6172 103.449 20.2031C102.988 19.7812 102.395 19.5703 101.668 19.5703C100.785 19.5703 100.086 19.9258 99.5703 20.6367C99.0547 21.3398 98.7969 22.3086 98.7969 23.543C98.7969 24.793 99.0547 25.7695 99.5703 26.4727C100.086 27.168 100.789 27.5156 101.68 27.5156C102.406 27.5156 102.996 27.3242 103.449 26.9414C103.902 26.5586 104.184 26.0156 104.293 25.3125H107.48C107.379 26.8125 106.801 28.0078 105.746 28.8984C104.699 29.7812 103.332 30.2227 101.645 30.2227C99.707 30.2227 98.168 29.625 97.0273 28.4297C95.8945 27.2344 95.3281 25.6055 95.3281 23.543C95.3281 21.5039 95.8945 19.8828 97.0273 18.6797C98.168 17.4766 99.6992 16.875 101.621 16.875C103.324 16.875 104.703 17.3398 105.758 18.2695C106.812 19.1992 107.383 20.3945 107.469 21.8555ZM109.25 30V17.0977H112.672V30H109.25ZM110.961 15.6914C110.453 15.6914 110.02 15.5195 109.66 15.1758C109.301 14.832 109.121 14.4062 109.121 13.8984C109.121 13.3906 109.301 12.9688 109.66 12.6328C110.02 12.2891 110.453 12.1172 110.961 12.1172C111.477 12.1172 111.914 12.2891 112.273 12.6328C112.633 12.9688 112.812 13.3906 112.812 13.8984C112.812 14.4062 112.633 14.832 112.273 15.1758C111.914 15.5195 111.477 15.6914 110.961 15.6914ZM115.051 30V17.0977H118.355V19.4062H118.426C119.184 17.7422 120.566 16.9102 122.574 16.9102C124.004 16.9102 125.125 17.3359 125.938 18.1875C126.758 19.0391 127.168 20.2188 127.168 21.7266V30H123.746V22.4414C123.746 21.582 123.523 20.9219 123.078 20.4609C122.641 19.9922 122.02 19.7578 121.215 19.7578C120.395 19.7578 119.73 20.0234 119.223 20.5547C118.723 21.0859 118.473 21.7812 118.473 22.6406V30H115.051ZM134.375 27.6562C135.18 27.6562 135.855 27.4336 136.402 26.9883C136.949 26.5352 137.223 25.9609 137.223 25.2656V24.3164L134.516 24.5039C133.805 24.5508 133.262 24.7109 132.887 24.9844C132.512 25.2578 132.324 25.6328 132.324 26.1094C132.324 26.5859 132.508 26.9648 132.875 27.2461C133.25 27.5195 133.75 27.6562 134.375 27.6562ZM133.262 30.1523C132.004 30.1523 130.965 29.793 130.145 29.0742C129.324 28.3555 128.914 27.4258 128.914 26.2852C128.914 25.1211 129.348 24.2109 130.215 23.5547C131.082 22.8984 132.344 22.5195 134 22.418L137.223 22.2188V21.3633C137.223 20.7461 137.023 20.2734 136.625 19.9453C136.227 19.6094 135.672 19.4414 134.961 19.4414C134.352 19.4414 133.84 19.5898 133.426 19.8867C133.02 20.1758 132.773 20.5586 132.688 21.0352H129.559C129.605 19.8008 130.137 18.8008 131.152 18.0352C132.176 17.2617 133.492 16.875 135.102 16.875C136.758 16.875 138.086 17.2656 139.086 18.0469C140.086 18.8281 140.586 19.8633 140.586 21.1523V30H137.281V28.0078H137.211C136.867 28.6719 136.332 29.1953 135.605 29.5781C134.887 29.9609 134.105 30.1523 133.262 30.1523ZM143.809 14.2266H147.23V17.0977H149.621V19.6875H147.23V25.957C147.23 26.9414 147.742 27.4336 148.766 27.4336C149.102 27.4336 149.387 27.4141 149.621 27.375V29.9062C149.152 30 148.602 30.0469 147.969 30.0469C146.477 30.0469 145.41 29.7734 144.77 29.2266C144.129 28.6797 143.809 27.7773 143.809 26.5195V19.6875H142.062V17.0977H143.809V14.2266ZM157.156 19.4297C156.375 19.4297 155.723 19.6875 155.199 20.2031C154.684 20.7188 154.395 21.3906 154.332 22.2188H159.898C159.867 21.375 159.602 20.6992 159.102 20.1914C158.602 19.6836 157.953 19.4297 157.156 19.4297ZM159.945 26.0625H163.098C162.91 27.3125 162.281 28.3203 161.211 29.0859C160.141 29.8438 158.82 30.2227 157.25 30.2227C155.289 30.2227 153.742 29.6328 152.609 28.4531C151.484 27.2734 150.922 25.6562 150.922 23.6016C150.922 21.5469 151.48 19.9141 152.598 18.7031C153.723 17.4844 155.23 16.875 157.121 16.875C158.98 16.875 160.457 17.4531 161.551 18.6094C162.652 19.7656 163.203 21.3242 163.203 23.2852V24.3398H154.297V24.5508C154.297 25.4805 154.574 26.2344 155.129 26.8125C155.684 27.3828 156.41 27.668 157.309 27.668C157.957 27.668 158.516 27.5273 158.984 27.2461C159.461 26.957 159.781 26.5625 159.945 26.0625ZM169.848 30.1523C168.238 30.1523 166.953 29.5586 165.992 28.3711C165.039 27.1758 164.562 25.5625 164.562 23.5312C164.562 21.5156 165.043 19.9141 166.004 18.7266C166.965 17.5391 168.25 16.9453 169.859 16.9453C170.781 16.9453 171.586 17.1562 172.273 17.5781C172.969 18 173.48 18.5742 173.809 19.3008H173.879V12.2812H177.301V30H173.926V27.7969H173.867C173.547 28.5156 173.031 29.0898 172.32 29.5195C171.609 29.9414 170.785 30.1523 169.848 30.1523ZM170.984 19.7109C170.094 19.7109 169.383 20.0586 168.852 20.7539C168.328 21.4414 168.066 22.3711 168.066 23.543C168.066 24.7227 168.328 25.6602 168.852 26.3555C169.383 27.043 170.094 27.3867 170.984 27.3867C171.867 27.3867 172.574 27.0391 173.105 26.3438C173.637 25.6484 173.902 24.7188 173.902 23.5547C173.902 22.3906 173.637 21.4609 173.105 20.7656C172.574 20.0625 171.867 19.7109 170.984 19.7109Z" fill="white"/>
</svg>
